<?xml version="1.0" encoding="UTF-8"?>
<svg version="1.1" xmlns="http://www.w3.org/2000/svg" width="286" height="166">
<path d="M0 0 C1.01964844 -0.00515625 2.03929688 -0.0103125 3.08984375 -0.015625 C6.15662043 0.25841024 8.22661113 1.1078273 11.0625 2.25 C18.31759633 3.25522419 25.51965499 3.40199094 32.8125 2.8125 C49.65828599 1.46273359 66.6892973 2.11968985 83.5625 2.625 C85.36980591 2.67116455 85.36980591 2.67116455 87.21362305 2.71826172 C88.88678589 2.77651123 88.88678589 2.77651123 90.59375 2.8359375 C92.07198242 2.88306885 92.07198242 2.88306885 93.58007812 2.93115234 C96.0625 3.25 96.0625 3.25 99.0625 5.25 C99.390625 8.26171875 99.390625 8.26171875 99.3125 11.9375 C99.28929687 13.20078125 99.26609375 14.4640625 99.2421875 15.765625 C99.0625 19.25 99.0625 19.25 98.4375 23.1875 C98.05590871 26.30382891 98.5329503 28.1613509 99.51171875 31.09765625 C101.28785809 38.03845607 101.37886584 45.25247631 100.0625 52.25 C100.0625 53.11625 100.0625 53.9825 100.0625 54.875 C100.0625 57.18882026 99.61933033 59.02267867 99.0625 61.25 C99.3925 61.58 99.7225 61.91 100.0625 62.25 C100.10330783 64.24958364 100.10504356 66.25045254 100.0625 68.25 C99.4025 68.25 98.7425 68.25 98.0625 68.25 C98.3925 69.9 98.7225 71.55 99.0625 73.25 C98.0725 73.745 98.0725 73.745 97.0625 74.25 C96.98135894 76.02007714 96.92324495 77.79122098 96.875 79.5625 C96.84019531 80.54863281 96.80539063 81.53476563 96.76953125 82.55078125 C96.7822654 85.29616023 96.7822654 85.29616023 98.625 86.8125 C99.099375 87.286875 99.57375 87.76125 100.0625 88.25 C99.91796875 90.51171875 99.91796875 90.51171875 99.25 92.9375 C99.03730469 93.74574219 98.82460937 94.55398437 98.60546875 95.38671875 C98.42628906 96.00160156 98.24710938 96.61648437 98.0625 97.25 C98.72894531 97.22679688 99.39539063 97.20359375 100.08203125 97.1796875 C106.98006737 97.04462106 113.32550148 97.79053417 120.0625 99.25 C118.36613829 101.35407096 117.51268536 102.18240678 114.79418945 102.59057617 C113.93011475 102.57486572 113.06604004 102.55915527 112.17578125 102.54296875 C111.23798828 102.53330078 110.30019531 102.52363281 109.33398438 102.51367188 C108.35751953 102.48853516 107.38105469 102.46339844 106.375 102.4375 C105.38693359 102.42396484 104.39886719 102.41042969 103.38085938 102.39648438 C100.94085769 102.36112203 98.50195281 102.31177033 96.0625 102.25 C96.3925 103.57 96.7225 104.89 97.0625 106.25 C101.0225 107.24 101.0225 107.24 105.0625 108.25 C105.0625 108.58 105.0625 108.91 105.0625 109.25 C102.4225 109.25 99.7825 109.25 97.0625 109.25 C97.0625 109.91 97.0625 110.57 97.0625 111.25 C103.3325 111.25 109.6025 111.25 116.0625 111.25 C116.3925 112.57 116.7225 113.89 117.0625 115.25 C115.51299732 116.79950268 113.96259406 116.46655193 111.80859375 116.56640625 C110.95458984 116.60830078 110.10058594 116.65019531 109.22070312 116.69335938 C108.32287109 116.73267578 107.42503906 116.77199219 106.5 116.8125 C105.59830078 116.85568359 104.69660156 116.89886719 103.76757812 116.94335938 C101.53271515 117.04978142 99.29773692 117.15179988 97.0625 117.25 C98.0525 118.57 99.0425 119.89 100.0625 121.25 C97.5875 122.24 97.5875 122.24 95.0625 123.25 C95.2275 124.343125 95.3925 125.43625 95.5625 126.5625 C96.22872112 131.78905159 96.14951543 136.9904008 96.0625 142.25 C97.3825 142.91 98.7025 143.57 100.0625 144.25 C99.4025 145.9 98.7425 147.55 98.0625 149.25 C97.4025 149.25 96.7425 149.25 96.0625 149.25 C96.000625 150.013125 95.93875 150.77625 95.875 151.5625 C95.0625 154.25 95.0625 154.25 92.75 156 C88.35380444 158.04474212 84.7717012 158.37433434 79.92486572 158.37025452 C78.66565811 158.37162918 77.4064505 158.37300385 76.10908508 158.37442017 C74.71627784 158.37088126 73.32347083 158.36724645 71.93066406 158.36352539 C70.46211245 158.36324328 68.99356069 158.36340172 67.52500916 158.3639679 C63.53982358 158.36425493 59.55466807 158.35837331 55.56948948 158.35139394 C51.4041363 158.34514484 47.23878244 158.34455537 43.07342529 158.34336853 C35.18641594 158.34025981 27.29942043 158.3320526 19.41241717 158.32201904 C10.43305339 158.31084366 1.45368894 158.30534386 -7.52568007 158.30032361 C-25.99629457 158.28986962 -44.46689617 158.27227905 -62.9375 158.25 C-62.9375 154.25 -62.9375 154.25 -62.3125 151.125 C-62.18875 150.17625 -62.065 149.2275 -61.9375 148.25 C-62.9275 147.26 -62.9275 147.26 -63.9375 146.25 C-63.60416667 144.25 -63.27083333 142.25 -62.9375 140.25 C-63.06164156 138.82897534 -63.22966653 137.41121489 -63.4375 136 C-63.9375 132.25 -63.9375 132.25 -62.9375 130.25 C-62.86424215 128.36067996 -62.85392152 126.46874728 -62.875 124.578125 C-62.88660156 122.86882812 -62.88660156 122.86882812 -62.8984375 121.125 C-62.92431081 118.72395651 -62.95035027 116.32291481 -62.9765625 113.921875 C-62.98429687 112.7771875 -62.99203125 111.6325 -63 110.453125 C-63.01160156 109.40801758 -63.02320312 108.36291016 -63.03515625 107.28613281 C-62.9375 104.25 -62.9375 104.25 -62.37109375 100.92480469 C-62.22800781 100.04211914 -62.08492187 99.15943359 -61.9375 98.25 C-62.2675 97.92 -62.5975 97.59 -62.9375 97.25 C-62.90376947 95.12497689 -62.86949049 92.99996065 -62.83203125 90.875 C-62.97842882 87.23132714 -63.80148853 83.84204526 -64.6953125 80.31640625 C-64.77523437 79.63449219 -64.85515625 78.95257813 -64.9375 78.25 C-63.9475 77.26 -63.9475 77.26 -62.9375 76.25 C-63.76894531 76.20101562 -64.60039063 76.15203125 -65.45703125 76.1015625 C-66.54371094 76.02679688 -67.63039063 75.95203125 -68.75 75.875 C-69.82894531 75.80539063 -70.90789062 75.73578125 -72.01953125 75.6640625 C-74.9375 75.25 -74.9375 75.25 -77.9375 73.25 C-77.9375 72.59 -77.9375 71.93 -77.9375 71.25 C-69.5225 70.755 -69.5225 70.755 -60.9375 70.25 C-60.9375 69.59 -60.9375 68.93 -60.9375 68.25 C-67.8675 68.25 -74.7975 68.25 -81.9375 68.25 C-81.6075 66.93 -81.2775 65.61 -80.9375 64.25 C-79.47926788 64.2229957 -78.02089325 64.20360213 -76.5625 64.1875 C-75.34433594 64.17009766 -75.34433594 64.17009766 -74.1015625 64.15234375 C-71.9375 64.25 -71.9375 64.25 -69.9375 65.25 C-69.9375 64.26 -69.9375 63.27 -69.9375 62.25 C-66.9675 61.755 -66.9675 61.755 -63.9375 61.25 C-73.5075 60.92 -83.0775 60.59 -92.9375 60.25 C-92.9375 59.26 -92.9375 58.27 -92.9375 57.25 C-77.5925 56.755 -77.5925 56.755 -61.9375 56.25 C-72.8275 55.92 -83.7175 55.59 -94.9375 55.25 C-94.6075 54.26 -94.2775 53.27 -93.9375 52.25 C-83.7075 52.25 -73.4775 52.25 -62.9375 52.25 C-62.6075 49.28 -62.2775 46.31 -61.9375 43.25 C-61.2775 41.93 -60.6175 40.61 -59.9375 39.25 C-60.18490744 37.24394515 -60.18490744 37.24394515 -60.9375 35.25 C-62.7939198 28.53095801 -62.90419513 23.5602393 -61.38671875 16.74609375 C-60.8401109 13.70885537 -61.13505698 11.21903917 -61.9375 8.25 C-58.9375 6.25 -58.9375 6.25 -54.9375 6.25 C-54.9375 5.59 -54.9375 4.93 -54.9375 4.25 C-52.59511932 3.07880966 -51.02701855 3.04958351 -48.4140625 2.93359375 C-47.48440674 2.89177979 -46.55475098 2.84996582 -45.59692383 2.80688477 C-44.59556396 2.76748779 -43.5942041 2.72809082 -42.5625 2.6875 C-41.53987061 2.64359131 -40.51724121 2.59968262 -39.46362305 2.55444336 C-31.71640015 2.24886012 -23.98600523 2.18289591 -16.23486328 2.37475586 C-10.27228925 2.4649471 -5.88920233 -0.02970594 0 0 Z " fill="#252022" transform="translate(124.9375,3.75)"/>
<path d="M0 0 C1.01964844 -0.00515625 2.03929688 -0.0103125 3.08984375 -0.015625 C6.15662043 0.25841024 8.22661113 1.1078273 11.0625 2.25 C18.31759633 3.25522419 25.51965499 3.40199094 32.8125 2.8125 C49.65828599 1.46273359 66.6892973 2.11968985 83.5625 2.625 C85.36980591 2.67116455 85.36980591 2.67116455 87.21362305 2.71826172 C88.88678589 2.77651123 88.88678589 2.77651123 90.59375 2.8359375 C92.07198242 2.88306885 92.07198242 2.88306885 93.58007812 2.93115234 C96.0625 3.25 96.0625 3.25 99.0625 5.25 C99.390625 8.26171875 99.390625 8.26171875 99.3125 11.9375 C99.28929687 13.20078125 99.26609375 14.4640625 99.2421875 15.765625 C99.0625 19.25 99.0625 19.25 98.4375 23.1875 C98.05590871 26.30382891 98.5329503 28.1613509 99.51171875 31.09765625 C101.28785809 38.03845607 101.37886584 45.25247631 100.0625 52.25 C100.0625 53.11625 100.0625 53.9825 100.0625 54.875 C100.0625 57.18882026 99.61933033 59.02267867 99.0625 61.25 C99.3925 61.58 99.7225 61.91 100.0625 62.25 C100.10330783 64.24958364 100.10504356 66.25045254 100.0625 68.25 C99.4025 68.25 98.7425 68.25 98.0625 68.25 C98.3925 69.9 98.7225 71.55 99.0625 73.25 C98.0725 73.745 98.0725 73.745 97.0625 74.25 C96.98135894 76.02007714 96.92324495 77.79122098 96.875 79.5625 C96.84019531 80.54863281 96.80539063 81.53476563 96.76953125 82.55078125 C96.7822654 85.29616023 96.7822654 85.29616023 98.625 86.8125 C99.099375 87.286875 99.57375 87.76125 100.0625 88.25 C99.91796875 90.51171875 99.91796875 90.51171875 99.25 92.9375 C99.03730469 93.74574219 98.82460937 94.55398437 98.60546875 95.38671875 C98.42628906 96.00160156 98.24710938 96.61648437 98.0625 97.25 C98.72894531 97.22679688 99.39539063 97.20359375 100.08203125 97.1796875 C106.98006737 97.04462106 113.32550148 97.79053417 120.0625 99.25 C118.36613829 101.35407096 117.51268536 102.18240678 114.79418945 102.59057617 C113.93011475 102.57486572 113.06604004 102.55915527 112.17578125 102.54296875 C111.23798828 102.53330078 110.30019531 102.52363281 109.33398438 102.51367188 C108.35751953 102.48853516 107.38105469 102.46339844 106.375 102.4375 C105.38693359 102.42396484 104.39886719 102.41042969 103.38085938 102.39648438 C100.94085769 102.36112203 98.50195281 102.31177033 96.0625 102.25 C96.3925 103.57 96.7225 104.89 97.0625 106.25 C101.0225 107.24 101.0225 107.24 105.0625 108.25 C105.0625 108.58 105.0625 108.91 105.0625 109.25 C102.4225 109.25 99.7825 109.25 97.0625 109.25 C97.0625 109.91 97.0625 110.57 97.0625 111.25 C103.3325 111.25 109.6025 111.25 116.0625 111.25 C116.3925 112.57 116.7225 113.89 117.0625 115.25 C116.0725 115.745 116.0725 115.745 115.0625 116.25 C115.0625 114.93 115.0625 113.61 115.0625 112.25 C107.4725 112.25 99.8825 112.25 92.0625 112.25 C91.4025 110.6 90.7425 108.95 90.0625 107.25 C89.4025 107.25 88.7425 107.25 88.0625 107.25 C89.0625 104.25 89.0625 104.25 91.16796875 102.60546875 C94.68282025 100.95951265 97.50813128 100.7431948 101.375 100.5625 C102.62925781 100.49675781 103.88351563 100.43101563 105.17578125 100.36328125 C106.12839844 100.32589844 107.08101562 100.28851563 108.0625 100.25 C108.0625 99.59 108.0625 98.93 108.0625 98.25 C103.4425 98.25 98.8225 98.25 94.0625 98.25 C93.0625 96.25 93.0625 96.25 92.0625 93.25 C93.0525 93.25 94.0425 93.25 95.0625 93.25 C94.7325 90.61 94.4025 87.97 94.0625 85.25 C93.4025 85.25 92.7425 85.25 92.0625 85.25 C92.0625 84.26 92.0625 83.27 92.0625 82.25 C92.7225 82.25 93.3825 82.25 94.0625 82.25 C94.0625 81.59 94.0625 80.93 94.0625 80.25 C93.4025 80.25 92.7425 80.25 92.0625 80.25 C92.0625 77.94 92.0625 75.63 92.0625 73.25 C90.99708984 73.17652344 90.99708984 73.17652344 89.91015625 73.1015625 C88.99105469 73.02679688 88.07195312 72.95203125 87.125 72.875 C86.20847656 72.80539063 85.29195312 72.73578125 84.34765625 72.6640625 C83.59355469 72.52742188 82.83945313 72.39078125 82.0625 72.25 C81.7325 71.59 81.4025 70.93 81.0625 70.25 C84.6925 70.25 88.3225 70.25 92.0625 70.25 C92.0625 69.59 92.0625 68.93 92.0625 68.25 C86.7825 68.25 81.5025 68.25 76.0625 68.25 C76.0625 67.92 76.0625 67.59 76.0625 67.25 C76.95453125 67.18941406 77.8465625 67.12882812 78.765625 67.06640625 C79.93609375 66.98261719 81.1065625 66.89882812 82.3125 66.8125 C83.47265625 66.73128906 84.6328125 66.65007812 85.828125 66.56640625 C88.94116968 66.34350711 88.94116968 66.34350711 91.421875 65.65234375 C91.96328125 65.51957031 92.5046875 65.38679688 93.0625 65.25 C93.3925 65.58 93.7225 65.91 94.0625 66.25 C94.0625 65.26 94.0625 64.27 94.0625 63.25 C86.1425 63.25 78.2225 63.25 70.0625 63.25 C70.0625 62.92 70.0625 62.59 70.0625 62.25 C74.3525 61.92 78.6425 61.59 83.0625 61.25 C79.4325 60.92 75.8025 60.59 72.0625 60.25 C72.0625 59.92 72.0625 59.59 72.0625 59.25 C77.6725 59.25 83.2825 59.25 89.0625 59.25 C89.0625 58.59 89.0625 57.93 89.0625 57.25 C87.0825 57.25 85.1025 57.25 83.0625 57.25 C83.0625 56.92 83.0625 56.59 83.0625 56.25 C85.7025 56.25 88.3425 56.25 91.0625 56.25 C91.0625 55.59 91.0625 54.93 91.0625 54.25 C80.8325 54.25 70.6025 54.25 60.0625 54.25 C60.0625 53.26 60.0625 52.27 60.0625 51.25 C58.5775 50.755 58.5775 50.755 57.0625 50.25 C69.6025 50.25 82.1425 50.25 95.0625 50.25 C95.0625 48.93 95.0625 47.61 95.0625 46.25 C82.1925 46.25 69.3225 46.25 56.0625 46.25 C56.0625 45.92 56.0625 45.59 56.0625 45.25 C67.9425 44.92 79.8225 44.59 92.0625 44.25 C92.7225 42.93 93.3825 41.61 94.0625 40.25 C94.3925 39.92 94.7225 39.59 95.0625 39.25 C93.7425 38.59 92.4225 37.93 91.0625 37.25 C91.7225 35.6 92.3825 33.95 93.0625 32.25 C93.7225 32.25 94.3825 32.25 95.0625 32.25 C94.0725 29.61 93.0825 26.97 92.0625 24.25 C92.7225 24.25 93.3825 24.25 94.0625 24.25 C94.0625 23.59 94.0625 22.93 94.0625 22.25 C93.4025 21.92 92.7425 21.59 92.0625 21.25 C93.0525 20.755 93.0525 20.755 94.0625 20.25 C94.0625 19.59 94.0625 18.93 94.0625 18.25 C75.9125 18.25 57.7625 18.25 39.0625 18.25 C39.0625 17.59 39.0625 16.93 39.0625 16.25 C56.2225 15.92 73.3825 15.59 91.0625 15.25 C88.1096528 13.7735764 85.37801017 14.02727061 82.0859375 13.93359375 C81.40069 13.91281265 80.7154425 13.89203156 80.00942993 13.87062073 C77.81888931 13.80519815 75.62822811 13.74627446 73.4375 13.6875 C71.9531125 13.64430782 70.46873722 13.6006933 68.984375 13.55664062 C65.34387916 13.44952447 61.70324749 13.34823638 58.0625 13.25 C58.0625 12.59 58.0625 11.93 58.0625 11.25 C59.11751709 11.22494385 60.17253418 11.1998877 61.25952148 11.17407227 C65.16020628 11.08015891 69.06070625 10.97989966 72.96118164 10.87768555 C74.65189299 10.83427561 76.34264991 10.79260511 78.03344727 10.75268555 C80.45863606 10.69512906 82.88359415 10.63139351 85.30859375 10.56640625 C86.06901474 10.54969376 86.82943573 10.53298126 87.61289978 10.51576233 C91.13332031 10.72908732 91.13332031 10.72908732 94.0625 9.25 C89.99881321 8.47596442 86.19824827 8.1515298 82.0625 8.25 C82.0625 7.59 82.0625 6.93 82.0625 6.25 C80.31284642 6.19570041 78.56270213 6.15707177 76.8125 6.125 C75.83796875 6.10179687 74.8634375 6.07859375 73.859375 6.0546875 C71.0428502 6.25137219 69.45300964 6.80431084 67.0625 8.25 C67.3925 7.26 67.7225 6.27 68.0625 5.25 C64.7625 5.25 61.4625 5.25 58.0625 5.25 C57.7325 5.91 57.4025 6.57 57.0625 7.25 C56.0725 6.59 55.0825 5.93 54.0625 5.25 C50.88684512 5.15081341 50.88684512 5.15081341 47.4375 5.5 C46.26960938 5.58765625 45.10171875 5.6753125 43.8984375 5.765625 C42.96257812 5.92546875 42.02671875 6.0853125 41.0625 6.25 C40.7325 6.91 40.4025 7.57 40.0625 8.25 C38.04427083 7.95703125 36.02604167 7.6640625 34.0078125 7.37109375 C31.98109333 7.0815703 31.98109333 7.0815703 30.0625 8.25 C24.97314191 8.55626226 20.03089621 8.45445969 15.0625 7.25 C14.0725 7.25 13.0825 7.25 12.0625 7.25 C10.7425 7.25 9.4225 7.25 8.0625 7.25 C8.0625 6.59 8.0625 5.93 8.0625 5.25 C6.43669034 5.36398665 4.81182843 5.49155659 3.1875 5.625 C1.83011719 5.72941406 1.83011719 5.72941406 0.4453125 5.8359375 C-2.11691903 6.04568132 -2.11691903 6.04568132 -3.9375 8.25 C-9.11113403 8.35988249 -14.28764535 7.57492733 -18.9375 5.25 C-18.9375 5.91 -18.9375 6.57 -18.9375 7.25 C-24.83916796 8.9549263 -28.06547915 9.28723172 -33.9375 7.25 C-39.61740222 7.27797981 -44.59091192 8.38491113 -49.9375 10.25 C-52.8125 10.375 -52.8125 10.375 -54.9375 10.25 C-54.6075 11.57 -54.2775 12.89 -53.9375 14.25 C-54.9275 14.58 -55.9175 14.91 -56.9375 15.25 C-55.9475 16.735 -55.9475 16.735 -54.9375 18.25 C-54.9375 19.57 -54.9375 20.89 -54.9375 22.25 C-56.9175 22.58 -58.8975 22.91 -60.9375 23.25 C-60.9375 23.91 -60.9375 24.57 -60.9375 25.25 C-59.6175 25.25 -58.2975 25.25 -56.9375 25.25 C-56.9375 25.91 -56.9375 26.57 -56.9375 27.25 C-58.5875 27.91 -60.2375 28.57 -61.9375 29.25 C-63.17223452 24.43453539 -62.53882058 21.11920308 -61.3515625 16.44140625 C-60.80141822 13.52979358 -61.20711924 11.09848496 -61.9375 8.25 C-58.9375 6.25 -58.9375 6.25 -54.9375 6.25 C-54.9375 5.59 -54.9375 4.93 -54.9375 4.25 C-52.59511932 3.07880966 -51.02701855 3.04958351 -48.4140625 2.93359375 C-47.48440674 2.89177979 -46.55475098 2.84996582 -45.59692383 2.80688477 C-44.59556396 2.76748779 -43.5942041 2.72809082 -42.5625 2.6875 C-41.53987061 2.64359131 -40.51724121 2.59968262 -39.46362305 2.55444336 C-31.71640015 2.24886012 -23.98600523 2.18289591 -16.23486328 2.37475586 C-10.27228925 2.4649471 -5.88920233 -0.02970594 0 0 Z " fill="#BFBEBE" transform="translate(124.9375,3.75)"/>
<path d="M0 0 C3.63 0 7.26 0 11 0 C11.33 1.65 11.66 3.3 12 5 C7.71 5 3.42 5 -1 5 C-1 5.66 -1 6.32 -1 7 C-0.09507813 6.98259766 -0.09507813 6.98259766 0.828125 6.96484375 C2.02695312 6.95130859 2.02695312 6.95130859 3.25 6.9375 C4.43335938 6.92009766 4.43335938 6.92009766 5.640625 6.90234375 C7.90691002 6.99614694 9.8288895 7.36758937 12 8 C11.625 9.9375 11.625 9.9375 11 12 C10.01 12.495 10.01 12.495 9 13 C9 13.66 9 14.32 9 15 C9.66 15 10.32 15 11 15 C11 15.66 11 16.32 11 17 C9.68 17.33 8.36 17.66 7 18 C7 18.66 7 19.32 7 20 C8.98 19.67 10.96 19.34 13 19 C12.67 20.65 12.34 22.3 12 24 C13.65 24 15.3 24 17 24 C17 24.33 17 24.66 17 25 C15.02 25 13.04 25 11 25 C11.33 27.31 11.66 29.62 12 32 C11.34 32 10.68 32 10 32 C10.33 33.65 10.66 35.3 11 37 C9.515 37.495 9.515 37.495 8 38 C9.32 39.32 10.64 40.64 12 42 C10.35 42 8.7 42 7 42 C7 42.99 7 43.98 7 45 C7.66 45 8.32 45 9 45 C9 45.66 9 46.32 9 47 C14.50068232 47.76067507 19.88877182 48.18837351 25.4375 48.31640625 C26.20304199 48.33718735 26.96858398 48.35796844 27.75732422 48.37937927 C30.1714698 48.44408136 32.58571181 48.50338541 35 48.5625 C36.64974903 48.60576095 38.29948878 48.64937748 39.94921875 48.69335938 C43.96605033 48.79967969 47.98297759 48.90116345 52 49 C52 49.33 52 49.66 52 50 C50.83428467 50.02505615 49.66856934 50.0501123 48.4675293 50.07592773 C44.14563869 50.17004691 39.8239071 50.27025669 35.50219727 50.37231445 C33.63114134 50.41564622 31.76004631 50.45732257 29.88891602 50.49731445 C27.20056369 50.55505949 24.51240785 50.61874181 21.82421875 50.68359375 C20.56782845 50.70866249 20.56782845 50.70866249 19.28605652 50.73423767 C15.96326712 50.81914061 13.17247982 50.94250673 10 52 C10.33 52.99 10.66 53.98 11 55 C10.4740625 56.4540625 10.4740625 56.4540625 9.9375 57.9375 C8.67294828 60.88964311 8.67294828 60.88964311 9.94140625 63.19140625 C10.46541016 64.08666016 10.46541016 64.08666016 11 65 C11.98932022 65.01213028 11.98932022 65.01213028 12.99862671 65.02450562 C19.84401207 65.11035572 26.68910129 65.20985003 33.53417969 65.31738281 C36.09109537 65.3557398 38.64806625 65.39058062 41.20507812 65.421875 C44.87389909 65.46737976 48.54233773 65.5253981 52.2109375 65.5859375 C53.35992523 65.59748871 54.50891296 65.60903992 55.69271851 65.62094116 C56.7536673 65.64081085 57.81461609 65.66068054 58.90771484 65.68115234 C59.84481293 65.69447601 60.78191101 65.70779968 61.74740601 65.7215271 C64 66 64 66 66 68 C49.83 68.33 33.66 68.66 17 69 C17 69.66 17 70.32 17 71 C14.36 71 11.72 71 9 71 C10.485 71.99 10.485 71.99 12 73 C12 73.66 12 74.32 12 75 C9.525 75.99 9.525 75.99 7 77 C7.66 77.66 8.32 78.32 9 79 C9 79.99 9 80.98 9 82 C20.55 82 32.1 82 44 82 C44 82.66 44 83.32 44 84 C33.44 84 22.88 84 12 84 C12.33 84.99 12.66 85.98 13 87 C16.27370452 87.72284356 19.34837473 88.13926373 22.69848633 88.20532227 C23.59904251 88.22526749 24.49959869 88.24521271 25.42744446 88.26576233 C26.3859581 88.28247482 27.34447174 88.29918732 28.33203125 88.31640625 C29.32377853 88.33718735 30.31552582 88.35796844 31.33732605 88.37937927 C34.49564899 88.44460052 37.65405288 88.50363202 40.8125 88.5625 C42.95769056 88.60571131 45.10287302 88.64932643 47.24804688 88.69335938 C52.49861311 88.80025372 57.74925932 88.90207037 63 89 C63.33 88.34 63.66 87.68 64 87 C65.66611905 86.957279 67.33382885 86.95936168 69 87 C69.33 87.33 69.66 87.66 70 88 C73.01049961 88.0728714 76.00892563 87.99617197 79.01953125 87.9375 C81.5703168 87.99098961 83.580619 88.25016763 86 89 C86 88.34 86 87.68 86 87 C87.98 86.67 89.96 86.34 92 86 C92.33 86.99 92.66 87.98 93 89 C94.32 89 95.64 89 97 89 C97 88.34 97 87.68 97 87 C99.31 87.66 101.62 88.32 104 89 C104.33 88.34 104.66 87.68 105 87 C105 87.66 105 88.32 105 89 C105.99 88.34 106.98 87.68 108 87 C110.60245498 86.85778935 113.09117684 86.81197068 115.6875 86.875 C116.38939453 86.88402344 117.09128906 86.89304687 117.81445312 86.90234375 C119.54311525 86.92586296 121.27160145 86.96173287 123 87 C123 87.33 123 87.66 123 88 C124.65 88.33 126.3 88.66 128 89 C128 88.34 128 87.68 128 87 C128.99 87 129.98 87 131 87 C131 87.66 131 88.32 131 89 C131.53625 88.835 132.0725 88.67 132.625 88.5 C135.45275915 87.90468228 138.11676275 88 141 88 C141.66 87.67 142.32 87.34 143 87 C143 87.66 143 88.32 143 89 C145.97 89 148.94 89 152 89 C152.99 87.02 152.99 87.02 154 85 C154.99 85.33 155.98 85.66 157 86 C157 85.34 157 84.68 157 84 C156.01 83.67 155.02 83.34 154 83 C155.32 83 156.64 83 158 83 C158 83.99 158 84.98 158 86 C159.32 86 160.64 86 162 86 C162 85.34 162 84.68 162 84 C161.34 84 160.68 84 160 84 C160 83.34 160 82.68 160 82 C161.65 82 163.3 82 165 82 C164.8125 84.3125 164.8125 84.3125 164 87 C159.14055005 90.67742158 154.81737793 91.12526715 148.86236572 91.12025452 C147.60315811 91.12162918 146.3439505 91.12300385 145.04658508 91.12442017 C143.65377784 91.12088126 142.26097083 91.11724645 140.86816406 91.11352539 C139.39961245 91.11324328 137.93106069 91.11340172 136.46250916 91.1139679 C132.47732358 91.11425493 128.49216807 91.10837331 124.50698948 91.10139394 C120.3416363 91.09514484 116.17628244 91.09455537 112.01092529 91.09336853 C104.12391594 91.09025981 96.23692043 91.0820526 88.34991717 91.07201904 C79.37055339 91.06084366 70.39118894 91.05534386 61.41181993 91.05032361 C42.94120543 91.03986962 24.47060383 91.02227905 6 91 C6 87 6 87 6.625 83.875 C6.74875 82.92625 6.8725 81.9775 7 81 C6.34 80.34 5.68 79.68 5 79 C5.5 76 5.5 76 6 73 C5.87585844 71.57897534 5.70783347 70.16121489 5.5 68.75 C5 65 5 65 6 63 C6.07325785 61.11067996 6.08357848 59.21874728 6.0625 57.328125 C6.05476563 56.18859375 6.04703125 55.0490625 6.0390625 53.875 C6.01318919 51.47395651 5.98714973 49.07291481 5.9609375 46.671875 C5.94933594 44.95484375 5.94933594 44.95484375 5.9375 43.203125 C5.92589844 42.15801758 5.91429687 41.11291016 5.90234375 40.03613281 C6 37 6 37 6.56640625 33.67480469 C6.70949219 32.79211914 6.85257813 31.90943359 7 31 C6.67 30.67 6.34 30.34 6 30 C6.03373053 27.87497689 6.06800951 25.74996065 6.10546875 23.625 C5.95907118 19.98132714 5.13601147 16.59204526 4.2421875 13.06640625 C4.16226563 12.38449219 4.08234375 11.70257813 4 11 C4.66 10.34 5.32 9.68 6 9 C5.16855469 8.95101562 4.33710937 8.90203125 3.48046875 8.8515625 C2.39378906 8.77679688 1.30710937 8.70203125 0.1875 8.625 C-0.89144531 8.55539063 -1.97039063 8.48578125 -3.08203125 8.4140625 C-6 8 -6 8 -9 6 C-9 5.34 -9 4.68 -9 4 C-0.585 3.505 -0.585 3.505 8 3 C8 2.34 8 1.68 8 1 C5.36 1 2.72 1 0 1 C0 0.67 0 0.34 0 0 Z " fill="#CCCBCB" transform="translate(56,71)"/>
<path d="M0 0 C1.01964844 -0.00515625 2.03929688 -0.0103125 3.08984375 -0.015625 C6.15662043 0.25841024 8.22661113 1.1078273 11.0625 2.25 C20.02291883 3.49150381 28.66924904 3.18763599 37.65234375 2.44140625 C41.94207474 2.20063097 45.82760366 2.58133216 50.0625 3.25 C48.0625 5.25 48.0625 5.25 44.5 5.75 C43.365625 5.915 42.23125 6.08 41.0625 6.25 C40.7325 6.91 40.4025 7.57 40.0625 8.25 C38.04427083 7.95703125 36.02604167 7.6640625 34.0078125 7.37109375 C31.98109333 7.0815703 31.98109333 7.0815703 30.0625 8.25 C24.97314191 8.55626226 20.03089621 8.45445969 15.0625 7.25 C14.0725 7.25 13.0825 7.25 12.0625 7.25 C10.7425 7.25 9.4225 7.25 8.0625 7.25 C8.0625 6.59 8.0625 5.93 8.0625 5.25 C6.43669034 5.36398665 4.81182843 5.49155659 3.1875 5.625 C1.83011719 5.72941406 1.83011719 5.72941406 0.4453125 5.8359375 C-2.11691903 6.04568132 -2.11691903 6.04568132 -3.9375 8.25 C-9.11113403 8.35988249 -14.28764535 7.57492733 -18.9375 5.25 C-18.9375 5.91 -18.9375 6.57 -18.9375 7.25 C-24.83916796 8.9549263 -28.06547915 9.28723172 -33.9375 7.25 C-39.61740222 7.27797981 -44.59091192 8.38491113 -49.9375 10.25 C-52.8125 10.375 -52.8125 10.375 -54.9375 10.25 C-54.6075 11.57 -54.2775 12.89 -53.9375 14.25 C-54.9275 14.58 -55.9175 14.91 -56.9375 15.25 C-55.9475 16.735 -55.9475 16.735 -54.9375 18.25 C-54.9375 19.57 -54.9375 20.89 -54.9375 22.25 C-56.9175 22.58 -58.8975 22.91 -60.9375 23.25 C-60.9375 23.91 -60.9375 24.57 -60.9375 25.25 C-59.6175 25.25 -58.2975 25.25 -56.9375 25.25 C-56.9375 25.91 -56.9375 26.57 -56.9375 27.25 C-58.5875 27.91 -60.2375 28.57 -61.9375 29.25 C-63.17223452 24.43453539 -62.53882058 21.11920308 -61.3515625 16.44140625 C-60.80141822 13.52979358 -61.20711924 11.09848496 -61.9375 8.25 C-58.9375 6.25 -58.9375 6.25 -54.9375 6.25 C-54.9375 5.59 -54.9375 4.93 -54.9375 4.25 C-52.59511932 3.07880966 -51.02701855 3.04958351 -48.4140625 2.93359375 C-47.48440674 2.89177979 -46.55475098 2.84996582 -45.59692383 2.80688477 C-44.59556396 2.76748779 -43.5942041 2.72809082 -42.5625 2.6875 C-41.53987061 2.64359131 -40.51724121 2.59968262 -39.46362305 2.55444336 C-31.71640015 2.24886012 -23.98600523 2.18289591 -16.23486328 2.37475586 C-10.27228925 2.4649471 -5.88920233 -0.02970594 0 0 Z " fill="#EDEDED" transform="translate(124.9375,3.75)"/>
<path d="M0 0 C2.64 0 5.28 0 8 0 C7.979375 1.134375 7.95875 2.26875 7.9375 3.4375 C7.58422523 6.81575674 7.58422523 6.81575674 9 8 C9.04080783 9.99958364 9.04254356 12.00045254 9 14 C8.34 14 7.68 14 7 14 C7.33 15.65 7.66 17.3 8 19 C7.34 19.33 6.68 19.66 6 20 C5.91885894 21.77007714 5.86074495 23.54122098 5.8125 25.3125 C5.77769531 26.29863281 5.74289063 27.28476563 5.70703125 28.30078125 C5.7197654 31.04616023 5.7197654 31.04616023 7.5625 32.5625 C8.036875 33.036875 8.51125 33.51125 9 34 C8.85546875 36.26171875 8.85546875 36.26171875 8.1875 38.6875 C7.97480469 39.49574219 7.76210937 40.30398437 7.54296875 41.13671875 C7.36378906 41.75160156 7.18460938 42.36648437 7 43 C7.66644531 42.97679687 8.33289063 42.95359375 9.01953125 42.9296875 C15.91756737 42.79462106 22.26300148 43.54053417 29 45 C27.30363829 47.10407096 26.45018536 47.93240678 23.73168945 48.34057617 C22.43557739 48.3170105 22.43557739 48.3170105 21.11328125 48.29296875 C20.17548828 48.28330078 19.23769531 48.27363281 18.27148438 48.26367188 C17.29501953 48.23853516 16.31855469 48.21339844 15.3125 48.1875 C14.32443359 48.17396484 13.33636719 48.16042969 12.31835938 48.14648438 C9.87835769 48.11112203 7.43945281 48.06177033 5 48 C5.33 49.32 5.66 50.64 6 52 C8.64 52.66 11.28 53.32 14 54 C14 54.33 14 54.66 14 55 C11.36 55 8.72 55 6 55 C6 55.66 6 56.32 6 57 C12.27 57 18.54 57 25 57 C25.495 58.98 25.495 58.98 26 61 C25.01 61.495 25.01 61.495 24 62 C24 60.68 24 59.36 24 58 C16.41 58 8.82 58 1 58 C0.34 56.35 -0.32 54.7 -1 53 C-1.66 53 -2.32 53 -3 53 C-2 50 -2 50 0.10546875 48.35546875 C3.62032025 46.70951265 6.44563128 46.4931948 10.3125 46.3125 C12.19388672 46.21388672 12.19388672 46.21388672 14.11328125 46.11328125 C15.06589844 46.07589844 16.01851562 46.03851563 17 46 C17 45.34 17 44.68 17 44 C12.38 44 7.76 44 3 44 C2 42 2 42 1 39 C1.99 39 2.98 39 4 39 C3.67 36.36 3.34 33.72 3 31 C2.34 31 1.68 31 1 31 C1 30.01 1 29.02 1 28 C1.66 28 2.32 28 3 28 C3 27.34 3 26.68 3 26 C2.34 26 1.68 26 1 26 C1 23.69 1 21.38 1 19 C0.28972656 18.95101562 -0.42054688 18.90203125 -1.15234375 18.8515625 C-2.07144531 18.77679688 -2.99054688 18.70203125 -3.9375 18.625 C-4.85402344 18.55539063 -5.77054688 18.48578125 -6.71484375 18.4140625 C-7.46894531 18.27742188 -8.22304687 18.14078125 -9 18 C-9.33 17.34 -9.66 16.68 -10 16 C-6.37 16 -2.74 16 1 16 C1 15.34 1 14.68 1 14 C-4.28 14 -9.56 14 -15 14 C-15 13.67 -15 13.34 -15 13 C-14.10796875 12.93941406 -13.2159375 12.87882812 -12.296875 12.81640625 C-10.54117188 12.69072266 -10.54117188 12.69072266 -8.75 12.5625 C-7.58984375 12.48128906 -6.4296875 12.40007812 -5.234375 12.31640625 C-2.12133032 12.09350711 -2.12133032 12.09350711 0.359375 11.40234375 C0.90078125 11.26957031 1.4421875 11.13679688 2 11 C2.33 11.33 2.66 11.66 3 12 C3 11.01 3 10.02 3 9 C-4.92 9 -12.84 9 -21 9 C-21 8.67 -21 8.34 -21 8 C-14.565 7.505 -14.565 7.505 -8 7 C-11.63 6.67 -15.26 6.34 -19 6 C-19 5.67 -19 5.34 -19 5 C-13.39 5 -7.78 5 -2 5 C-2 4.34 -2 3.68 -2 3 C-3.98 3 -5.96 3 -8 3 C-8 2.67 -8 2.34 -8 2 C-5.36 2 -2.72 2 0 2 C0 1.34 0 0.68 0 0 Z " fill="#D6D4D5" transform="translate(216,58)"/>
<path d="M0 0 C0.33 -0.33 0.66 -0.66 1 -1 C2.66429051 -1.09823937 4.33281931 -1.12973631 6 -1.125 C7.36125 -1.12886719 7.36125 -1.12886719 8.75 -1.1328125 C11 -1 11 -1 12 0 C12 -0.33 12 -0.66 12 -1 C13.60407328 -1.02708567 15.2082785 -1.04643483 16.8125 -1.0625 C17.70582031 -1.07410156 18.59914062 -1.08570313 19.51953125 -1.09765625 C22 -1 22 -1 25 0 C25 0.66 25 1.32 25 2 C26.794375 1.7215625 26.794375 1.7215625 28.625 1.4375 C32.28283707 0.9688803 35.37862166 1.18518987 39 2 C38.34 2.33 37.68 2.66 37 3 C36.67 3.66 36.34 4.32 36 5 C24.45 5 12.9 5 1 5 C1 5.66 1 6.32 1 7 C1.91813477 6.98428955 2.83626953 6.9685791 3.78222656 6.95239258 C7.19650949 6.9011913 10.61038304 6.86361521 14.02490234 6.83520508 C15.50120491 6.82014077 16.97746288 6.79968518 18.45361328 6.77368164 C20.57856258 6.73719261 22.70291901 6.72025067 24.828125 6.70703125 C26.7447998 6.68346558 26.7447998 6.68346558 28.70019531 6.65942383 C32.1675655 7.0172946 33.51686448 7.62898844 36 10 C32.65747276 10.07427838 30.1964086 10.06546953 27 9 C25.46074069 8.91802194 23.91811848 8.89252676 22.37670898 8.90234375 C21.44241562 8.90564697 20.50812225 8.9089502 19.54551697 8.91235352 C18.53920731 8.92065186 17.53289764 8.9289502 16.49609375 8.9375 C15.46186783 8.94128662 14.42764191 8.94507324 13.36207581 8.94897461 C10.05384196 8.96120785 6.74569449 8.97984125 3.4375 9 C-0.91796633 9.02649809 -5.27339001 9.04653834 -9.62890625 9.0625 C-10.63724014 9.07079834 -11.64557404 9.07909668 -12.6844635 9.08764648 C-13.61560471 9.09094971 -14.54674591 9.09425293 -15.50610352 9.09765625 C-16.32756363 9.10289307 -17.14902374 9.10812988 -17.99537659 9.11352539 C-20 9 -20 9 -22 8 C-22 7.34 -22 6.68 -22 6 C-21.34 6 -20.68 6 -20 6 C-19.67 5.01 -19.34 4.02 -19 3 C-17.84375 0.8671875 -17.84375 0.8671875 -16 -1 C-12.96875 -1.6796875 -12.96875 -1.6796875 -9.5 -1.875 C-7.78296875 -1.99488281 -7.78296875 -1.99488281 -6.03125 -2.1171875 C-3 -2 -3 -2 0 0 Z " fill="#282526" transform="translate(182,10)"/>
<path d="M0 0 C0.66 0.33 1.32 0.66 2 1 C2 2.32 2 3.64 2 5 C6.95 5 11.9 5 17 5 C17 4.34 17 3.68 17 3 C28.55 3 40.1 3 52 3 C52 3.66 52 4.32 52 5 C49.03821227 6.67110042 46.62928808 7.32682752 43.25 7.625 C42.45078125 7.69976562 41.6515625 7.77453125 40.828125 7.8515625 C40.22484375 7.90054688 39.6215625 7.94953125 39 8 C40.32 8.33 41.64 8.66 43 9 C43 10.32 43 11.64 43 13 C40.04411532 14.47794234 37.03780565 14.16276211 33.796875 14.16796875 C32.72376068 14.17296135 32.72376068 14.17296135 31.62896729 14.17805481 C30.11251468 14.18312176 28.59605091 14.18546321 27.07958984 14.18530273 C24.77292128 14.18747838 22.46673947 14.20560585 20.16015625 14.22460938 C18.68489746 14.22754562 17.20963641 14.22952887 15.734375 14.23046875 C14.70748566 14.24124702 14.70748566 14.24124702 13.65985107 14.25224304 C9.40187852 14.23220529 5.96050625 13.55108302 2 12 C2 11.01 2 10.02 2 9 C12.56 9 23.12 9 34 9 C34 8.34 34 7.68 34 7 C22.45 7 10.9 7 -1 7 C-1.33 6.01 -1.66 5.02 -2 4 C-2.66 3.34 -3.32 2.68 -4 2 C-2.125 0.9375 -2.125 0.9375 0 0 Z " fill="#5B5859" transform="translate(66,146)"/>
<path d="M0 0 C0.33 0 0.66 0 1 0 C3.94483237 10.27913185 5.97489652 20.36822626 4 31 C3.96377667 32.66627298 3.95100158 34.33405374 4 36 C3.67 35.01 3.34 34.02 3 33 C-9.87 33 -22.74 33 -36 33 C-36 32.01 -36 31.02 -36 30 C-36.99 29.67 -37.98 29.34 -39 29 C-26.46 29 -13.92 29 -1 29 C-1 27.68 -1 26.36 -1 25 C-13.87 25 -26.74 25 -40 25 C-40 24.67 -40 24.34 -40 24 C-28.12 23.67 -16.24 23.34 -4 23 C-3.34 21.68 -2.68 20.36 -2 19 C-1.505 18.505 -1.505 18.505 -1 18 C-2.32 17.34 -3.64 16.68 -5 16 C-4.34 14.35 -3.68 12.7 -3 11 C-2.34 11 -1.68 11 -1 11 C-1.99 8.36 -2.98 5.72 -4 3 C-3.01 3 -2.02 3 -1 3 C-0.67 2.01 -0.34 1.02 0 0 Z " fill="#F6F5F6" transform="translate(221,25)"/>
<path d="M0 0 C1.65 0 3.3 0 5 0 C4.8125 2.3125 4.8125 2.3125 4 5 C-0.68168385 8.54289589 -4.88077787 9.12480816 -10.62150574 9.12698364 C-11.76673706 9.12980347 -12.91196838 9.13262329 -14.09190369 9.13552856 C-15.34443436 9.13350433 -16.59696503 9.1314801 -17.88745117 9.12939453 C-19.22317553 9.13074998 -20.55889952 9.13253072 -21.8946228 9.13470459 C-25.52091696 9.13926406 -29.14718266 9.13749487 -32.77347732 9.1343255 C-36.5742715 9.13179162 -40.37506326 9.13414256 -44.17585754 9.13571167 C-50.56393876 9.13753146 -56.95200843 9.13513318 -63.34008789 9.13037109 C-70.70971679 9.12494048 -78.07931797 9.12668314 -85.44894618 9.1321975 C-91.7854232 9.13674795 -98.1218919 9.13736938 -104.45837003 9.13475883 C-108.23853433 9.13320518 -112.01868565 9.13297697 -115.79884911 9.13629532 C-119.358648 9.13920173 -122.91841153 9.13714782 -126.47820663 9.13140106 C-128.39562177 9.12946516 -130.31303992 9.13240456 -132.23045349 9.13552856 C-138.57283183 9.12010208 -144.71267551 8.84639635 -151 8 C-151 7.34 -151 6.68 -151 6 C-150.34 6 -149.68 6 -149 6 C-148.67 4.68 -148.34 3.36 -148 2 C-147.67 2.99 -147.34 3.98 -147 5 C-143.72629548 5.72284356 -140.65162527 6.13926373 -137.30151367 6.20532227 C-135.9506794 6.2352401 -135.9506794 6.2352401 -134.57255554 6.26576233 C-133.13478508 6.29083107 -133.13478508 6.29083107 -131.66796875 6.31640625 C-130.67622147 6.33718735 -129.68447418 6.35796844 -128.66267395 6.37937927 C-125.50435101 6.44460052 -122.34594712 6.50363202 -119.1875 6.5625 C-117.04230944 6.60571131 -114.89712698 6.64932643 -112.75195312 6.69335938 C-107.50138689 6.80025372 -102.25074068 6.90207037 -97 7 C-96.67 6.34 -96.34 5.68 -96 5 C-94.33388095 4.957279 -92.66617115 4.95936168 -91 5 C-90.505 5.495 -90.505 5.495 -90 6 C-86.98950039 6.0728714 -83.99107437 5.99617197 -80.98046875 5.9375 C-78.4296832 5.99098961 -76.419381 6.25016763 -74 7 C-74 6.34 -74 5.68 -74 5 C-71.03 4.505 -71.03 4.505 -68 4 C-67.505 5.485 -67.505 5.485 -67 7 C-65.68 7 -64.36 7 -63 7 C-63 6.34 -63 5.68 -63 5 C-60.69 5.66 -58.38 6.32 -56 7 C-55.67 6.34 -55.34 5.68 -55 5 C-55 5.66 -55 6.32 -55 7 C-54.01 6.34 -53.02 5.68 -52 5 C-49.39754502 4.85778935 -46.90882316 4.81197068 -44.3125 4.875 C-43.61060547 4.88402344 -42.90871094 4.89304688 -42.18554688 4.90234375 C-40.45688475 4.92586296 -38.72839855 4.96173287 -37 5 C-37 5.33 -37 5.66 -37 6 C-35.35 6.33 -33.7 6.66 -32 7 C-32 6.34 -32 5.68 -32 5 C-31.01 5 -30.02 5 -29 5 C-29 5.66 -29 6.32 -29 7 C-28.46375 6.835 -27.9275 6.67 -27.375 6.5 C-24.54724085 5.90468228 -21.88323725 6 -19 6 C-18.34 5.67 -17.68 5.34 -17 5 C-17 5.66 -17 6.32 -17 7 C-14.03 7 -11.06 7 -8 7 C-7.34 5.68 -6.68 4.36 -6 3 C-5.01 3.33 -4.02 3.66 -3 4 C-3 3.34 -3 2.68 -3 2 C-3.99 1.67 -4.98 1.34 -6 1 C-4.68 1 -3.36 1 -2 1 C-2 1.99 -2 2.98 -2 4 C-0.68 4 0.64 4 2 4 C2 3.34 2 2.68 2 2 C1.34 2 0.68 2 0 2 C0 1.34 0 0.68 0 0 Z " fill="#888586" transform="translate(216,153)"/>
<path d="M0 0 C0.99 0.33 1.98 0.66 3 1 C4.36639344 4.25545104 3.93189425 7.30232037 3.5625 10.75 C3.46066406 11.73484375 3.35882813 12.7196875 3.25390625 13.734375 C3.17011719 14.48203125 3.08632812 15.2296875 3 16 C2.01 16.33 1.02 16.66 0 17 C-0.33 17.66 -0.66 18.32 -1 19 C-0.01 19 0.98 19 2 19 C2 19.99 2 20.98 2 22 C1.01 22.66 0.02 23.32 -1 24 C-0.01 24.33 0.98 24.66 2 25 C2 25.66 2 26.32 2 27 C-1.28696233 27.79953138 -2.71023192 28.09658936 -6 27 C-5.34 26.67 -4.68 26.34 -4 26 C-13.57 25.67 -23.14 25.34 -33 25 C-33 24.01 -33 23.02 -33 22 C-17.655 21.505 -17.655 21.505 -2 21 C-12.89 20.67 -23.78 20.34 -35 20 C-34.505 18.515 -34.505 18.515 -34 17 C-23.77 17 -13.54 17 -3 17 C-2.67 14.03 -2.34 11.06 -2 8 C-1.34 6.68 -0.68 5.36 0 4 C0 2.68 0 1.36 0 0 Z " fill="#8C8B8C" transform="translate(65,39)"/>
<path d="M0 0 C3.63 0 7.26 0 11 0 C11.33 1.65 11.66 3.3 12 5 C7.71 5 3.42 5 -1 5 C-1 5.66 -1 6.32 -1 7 C-0.09507813 6.98259766 -0.09507813 6.98259766 0.828125 6.96484375 C2.02695312 6.95130859 2.02695312 6.95130859 3.25 6.9375 C4.43335938 6.92009766 4.43335938 6.92009766 5.640625 6.90234375 C7.90691002 6.99614694 9.8288895 7.36758937 12 8 C11.625 9.9375 11.625 9.9375 11 12 C10.01 12.495 10.01 12.495 9 13 C9 13.66 9 14.32 9 15 C9.66 15 10.32 15 11 15 C11 15.66 11 16.32 11 17 C9.68 17.33 8.36 17.66 7 18 C7 18.66 7 19.32 7 20 C8.98 19.67 10.96 19.34 13 19 C12.67 20.65 12.34 22.3 12 24 C13.65 24 15.3 24 17 24 C17 24.33 17 24.66 17 25 C15.02 25 13.04 25 11 25 C11.33 27.31 11.66 29.62 12 32 C11.34 32 10.68 32 10 32 C10.33 33.65 10.66 35.3 11 37 C9.515 37.495 9.515 37.495 8 38 C9.32 39.32 10.64 40.64 12 42 C10.35 42 8.7 42 7 42 C7 42.99 7 43.98 7 45 C7.66 45 8.32 45 9 45 C8.67 45.99 8.34 46.98 8 48 C7.34 48 6.68 48 6 48 C5.90705153 42.19588463 5.94492265 36.72756276 7 31 C6.67 30.67 6.34 30.34 6 30 C6.03373053 27.87497689 6.06800951 25.74996065 6.10546875 23.625 C5.95907118 19.98132714 5.13601147 16.59204526 4.2421875 13.06640625 C4.16226563 12.38449219 4.08234375 11.70257813 4 11 C4.66 10.34 5.32 9.68 6 9 C5.16855469 8.95101562 4.33710937 8.90203125 3.48046875 8.8515625 C2.39378906 8.77679688 1.30710937 8.70203125 0.1875 8.625 C-0.89144531 8.55539063 -1.97039063 8.48578125 -3.08203125 8.4140625 C-6 8 -6 8 -9 6 C-9 5.34 -9 4.68 -9 4 C-0.585 3.505 -0.585 3.505 8 3 C8 2.34 8 1.68 8 1 C5.36 1 2.72 1 0 1 C0 0.67 0 0.34 0 0 Z " fill="#DAD9DA" transform="translate(56,71)"/>
<path d="M0 0 C6.31712993 -0.02538248 12.63424668 -0.04288057 18.95141602 -0.05493164 C21.09985852 -0.05995629 23.2482976 -0.06677708 25.39672852 -0.07543945 C28.4871505 -0.08758678 31.57752722 -0.09324705 34.66796875 -0.09765625 C35.62648239 -0.10281754 36.58499603 -0.10797882 37.57255554 -0.11329651 C38.47311172 -0.11337204 39.37366791 -0.11344757 40.30151367 -0.11352539 C41.08983078 -0.115746 41.87814789 -0.11796661 42.69035339 -0.12025452 C45.20419855 0.01063184 47.54610177 0.45179104 50 1 C49.67 2.32 49.34 3.64 49 5 C48.67 5 48.34 5 48 5 C48 5.33 48 5.66 48 6 C32.87119257 6.2087175 17.97183261 6.39549322 3 4 C3 3.67 3 3.34 3 3 C6.96 3 10.92 3 15 3 C15 2.34 15 1.68 15 1 C10.05 1 5.1 1 0 1 C0 0.67 0 0.34 0 0 Z " fill="#211E1F" transform="translate(165,35)"/>
<path d="M0 0 C2.79192205 -0.05380578 5.5828141 -0.09357669 8.375 -0.125 C9.1690625 -0.14175781 9.963125 -0.15851562 10.78125 -0.17578125 C12.85492015 -0.19335473 14.92883241 -0.10335168 17 0 C19.5654594 2.5654594 19.54046087 4.47686668 20 8 C19.34 8.33 18.68 8.66 18 9 C17.34786708 11.02463255 17.34786708 11.02463255 17 13 C17.99 13.33 18.98 13.66 20 14 C20.99 14.33 21.98 14.66 23 15 C21.68 15.33 20.36 15.66 19 16 C18.67 17.32 18.34 18.64 18 20 C16.5 18.6875 16.5 18.6875 15 17 C15 16.01 15 15.02 15 14 C2.79 14 -9.42 14 -22 14 C-22 13.67 -22 13.34 -22 13 C-11.11 12.67 -0.22 12.34 11 12 C11.33 11.34 11.66 10.68 12 10 C12.66 10.33 13.32 10.66 14 11 C14.33 10.01 14.66 9.02 15 8 C-9.75 7.505 -9.75 7.505 -35 7 C-34.67 6.34 -34.34 5.68 -34 5 C-16.84 5.33 0.32 5.66 18 6 C18 5.34 18 4.68 18 4 C17.34 4 16.68 4 16 4 C16 3.34 16 2.68 16 2 C10.72 2 5.44 2 0 2 C0 1.34 0 0.68 0 0 Z " fill="#7A7678" transform="translate(200,28)"/>
<path d="M0 0 C0.72566162 0.0007251 1.45132324 0.0014502 2.19897461 0.00219727 C2.92189697 0.00147217 3.64481934 0.00074707 4.38964844 0 C16.15652056 0.00130932 27.71416408 0.61842469 39.38647461 2.18969727 C38.72647461 3.17969727 38.06647461 4.16969727 37.38647461 5.18969727 C37.38647461 4.52969727 37.38647461 3.86969727 37.38647461 3.18969727 C25.83647461 3.18969727 14.28647461 3.18969727 2.38647461 3.18969727 C2.71647461 4.17969727 3.04647461 5.16969727 3.38647461 6.18969727 C-2.22352539 6.18969727 -7.83352539 6.18969727 -13.61352539 6.18969727 C-13.61352539 -2.76316852 -7.26128894 0.00082132 0 0 Z " fill="#201B1D" transform="translate(80.613525390625,145.810302734375)"/>
<path d="M0 0 C1.29010986 0.03456299 2.58021973 0.06912598 3.90942383 0.10473633 C5.12267334 0.14880615 6.33592285 0.19287598 7.5859375 0.23828125 C8.67696777 0.27606689 9.76799805 0.31385254 10.89208984 0.3527832 C13.625 0.6875 13.625 0.6875 16.625 2.6875 C16.91796875 5.5078125 16.91796875 5.5078125 16.8125 8.8125 C16.77189453 10.45605469 16.77189453 10.45605469 16.73046875 12.1328125 C16.69566406 12.97585937 16.66085938 13.81890625 16.625 14.6875 C15.305 14.0275 13.985 13.3675 12.625 12.6875 C13.615 12.3575 14.605 12.0275 15.625 11.6875 C15.625 11.0275 15.625 10.3675 15.625 9.6875 C14.965 9.3575 14.305 9.0275 13.625 8.6875 C14.285 8.6875 14.945 8.6875 15.625 8.6875 C15.625 7.6975 15.625 6.7075 15.625 5.6875 C10.345 5.6875 5.065 5.6875 -0.375 5.6875 C-0.375 5.0275 -0.375 4.3675 -0.375 3.6875 C-2.12465358 3.63320041 -3.87479787 3.59457177 -5.625 3.5625 C-6.59953125 3.53929687 -7.5740625 3.51609375 -8.578125 3.4921875 C-11.3946498 3.68887219 -12.98449036 4.24181084 -15.375 5.6875 C-15.045 4.6975 -14.715 3.7075 -14.375 2.6875 C-17.675 2.6875 -20.975 2.6875 -24.375 2.6875 C-24.705 3.3475 -25.035 4.0075 -25.375 4.6875 C-26.365 4.0275 -27.355 3.3675 -28.375 2.6875 C-31.50021833 2.52050768 -31.50021833 2.52050768 -34.375 2.6875 C-28.12037415 -3.56712585 -8.17585898 -0.24457482 0 0 Z " fill="#F0EFF0" transform="translate(207.375,6.3125)"/>
<path d="M0 0 C1.2065625 0.0309375 1.2065625 0.0309375 2.4375 0.0625 C2.47617188 1.21878906 2.47617188 1.21878906 2.515625 2.3984375 C2.57234375 3.40132812 2.6290625 4.40421875 2.6875 5.4375 C2.73390625 6.43523437 2.7803125 7.43296875 2.828125 8.4609375 C3.15910885 11.2151477 3.15910885 11.2151477 5.484375 12.4140625 C6.12890625 12.62804687 6.7734375 12.84203125 7.4375 13.0625 C6.75 15.5 6.75 15.5 5.4375 18.0625 C2.9375 18.9375 2.9375 18.9375 0.4375 19.0625 C-0.2225 18.7325 -0.8825 18.4025 -1.5625 18.0625 C-1.5625 18.7225 -1.5625 19.3825 -1.5625 20.0625 C-0.9025 20.0625 -0.2425 20.0625 0.4375 20.0625 C0.4375 20.7225 0.4375 21.3825 0.4375 22.0625 C-0.8825 22.0625 -2.2025 22.0625 -3.5625 22.0625 C-3.5625 21.0725 -3.5625 20.0825 -3.5625 19.0625 C-5.2125 18.7325 -6.8625 18.4025 -8.5625 18.0625 C-8.5625 17.4025 -8.5625 16.7425 -8.5625 16.0625 C-6.9125 15.7325 -5.2625 15.4025 -3.5625 15.0625 C-3.913125 14.52625 -4.26375 13.99 -4.625 13.4375 C-5.85174249 10.32975237 -5.29106431 8.26818297 -4.5625 5.0625 C-3.9025 5.0625 -3.2425 5.0625 -2.5625 5.0625 C-2.8409375 4.1034375 -2.8409375 4.1034375 -3.125 3.125 C-3.269375 2.444375 -3.41375 1.76375 -3.5625 1.0625 C-2.5625 0.0625 -2.5625 0.0625 0 0 Z " fill="#383637" transform="translate(217.5625,134.9375)"/>
<path d="M0 0 C6.35372519 -0.050652 12.70739844 -0.08571322 19.0612793 -0.10986328 C21.22340847 -0.11992951 23.385524 -0.13358354 25.54760742 -0.15087891 C28.65286625 -0.17509978 31.7579453 -0.18647681 34.86328125 -0.1953125 C35.83211746 -0.20563507 36.80095367 -0.21595764 37.79914856 -0.22659302 C38.6998558 -0.22674408 39.60056305 -0.22689514 40.52856445 -0.22705078 C41.71770195 -0.23371262 41.71770195 -0.23371262 42.93086243 -0.24050903 C45 0 45 0 48 2 C48 3.32 48 4.64 48 6 C35.46 6 22.92 6 10 6 C10 5.67 10 5.34 10 5 C14.19896986 4.831965 18.39814039 4.67145134 22.59765625 4.51782227 C24.02546878 4.46453843 25.45320694 4.40922025 26.88085938 4.35180664 C28.93603482 4.26951375 30.99136893 4.19460322 33.046875 4.12109375 C34.28276367 4.0739624 35.51865234 4.02683105 36.79199219 3.97827148 C39.45894519 3.99633532 41.48623414 4.1849471 44 5 C44 4.34 44 3.68 44 3 C42.80922852 3.00523682 41.61845703 3.01047363 40.39160156 3.01586914 C35.9710363 3.03397788 31.55047431 3.04545353 27.12988281 3.05493164 C25.21711679 3.05995841 23.3043546 3.06678077 21.39160156 3.07543945 C18.6412664 3.08757748 15.89098207 3.0932449 13.140625 3.09765625 C12.28631897 3.10281754 11.43201294 3.10797882 10.55181885 3.11329651 C9.35102692 3.11340981 9.35102692 3.11340981 8.12597656 3.11352539 C7.42426331 3.115746 6.72255005 3.11796661 5.99957275 3.12025452 C3.89404912 2.9936281 2.02592372 2.57320021 0 2 C0 1.34 0 0.68 0 0 Z " fill="#626060" transform="translate(172,48)"/>
<path d="M0 0 C3.96 0 7.92 0 12 0 C9 3 9 3 6.73168945 3.34057617 C5.86761475 3.32486572 5.00354004 3.30915527 4.11328125 3.29296875 C3.17548828 3.28330078 2.23769531 3.27363281 1.27148438 3.26367188 C0.29501953 3.23853516 -0.68144531 3.21339844 -1.6875 3.1875 C-2.67556641 3.17396484 -3.66363281 3.16042969 -4.68164062 3.14648438 C-7.12164231 3.11112203 -9.56054719 3.06177033 -12 3 C-11.67 4.32 -11.34 5.64 -11 7 C-8.36 7.66 -5.72 8.32 -3 9 C-3 9.33 -3 9.66 -3 10 C-5.64 10 -8.28 10 -11 10 C-11 10.66 -11 11.32 -11 12 C-4.73 12 1.54 12 8 12 C8.33 13.32 8.66 14.64 9 16 C8.34 16.33 7.68 16.66 7 17 C7 15.68 7 14.36 7 13 C-0.59 13 -8.18 13 -16 13 C-16.66 11.35 -17.32 9.7 -18 8 C-18.66 8 -19.32 8 -20 8 C-19 5 -19 5 -16.89453125 3.35546875 C-13.37967975 1.70951265 -10.55436872 1.4931948 -6.6875 1.3125 C-5.43324219 1.24675781 -4.17898437 1.18101563 -2.88671875 1.11328125 C-1.93410156 1.07589844 -0.98148438 1.03851563 0 1 C0 0.67 0 0.34 0 0 Z " fill="#B6B5B5" transform="translate(233,103)"/>
<path d="M0 0 C1.485 0.99 1.485 0.99 3 2 C2.01 2.495 2.01 2.495 1 3 C1.66 3.66 2.32 4.32 3 5 C3 5.99 3 6.98 3 8 C14.55 8 26.1 8 38 8 C38 8.66 38 9.32 38 10 C27.11 10 16.22 10 5 10 C5 11.32 5 12.64 5 14 C4.34 14 3.68 14 3 14 C3 14.66 3 15.32 3 16 C5.97 16 8.94 16 12 16 C12 16.33 12 16.66 12 17 C8.04 17 4.08 17 0 17 C0 13 0 13 0.625 9.875 C0.74875 8.92625 0.8725 7.9775 1 7 C0.34 6.34 -0.32 5.68 -1 5 C-0.625 2.375 -0.625 2.375 0 0 Z " fill="#EDEDED" transform="translate(62,145)"/>
<path d="M0 0 C9.24 0 18.48 0 28 0 C27.01 0.495 27.01 0.495 26 1 C25.34786708 3.02463255 25.34786708 3.02463255 25 5 C21.95809137 5.05421223 18.91716001 5.09377548 15.875 5.125 C15.0190625 5.14175781 14.163125 5.15851563 13.28125 5.17578125 C8.43412707 5.21306681 4.55292095 4.89580643 0 3 C0 2.01 0 1.02 0 0 Z " fill="#2C2A2A" transform="translate(68,155)"/>
<path d="M0 0 C0.99 0.33 1.98 0.66 3 1 C4.29702044 4.17371483 4.05346253 7.25152464 3.8125 10.625 C3.75707031 11.58664063 3.70164063 12.54828125 3.64453125 13.5390625 C3 16 3 16 1.38061523 17.14160156 C-1.75376956 18.27179302 -4.40387874 18.22452738 -7.734375 18.1953125 C-9.02988281 18.18886719 -10.32539062 18.18242188 -11.66015625 18.17578125 C-13.02344019 18.15907193 -14.38672144 18.14214206 -15.75 18.125 C-17.12889985 18.1149634 -18.50780665 18.10583873 -19.88671875 18.09765625 C-23.25798882 18.07408093 -26.62890636 18.0411727 -30 18 C-30 18.66 -30 19.32 -30 20 C-31.65 20 -33.3 20 -35 20 C-34.505 18.515 -34.505 18.515 -34 17 C-23.77 17 -13.54 17 -3 17 C-2.67 14.03 -2.34 11.06 -2 8 C-1.34 6.68 -0.68 5.36 0 4 C0 2.68 0 1.36 0 0 Z " fill="#DFDEDE" transform="translate(65,39)"/>
<path d="M0 0 C14.85 0.33 29.7 0.66 45 1 C45 1.33 45 1.66 45 2 C43.83428467 2.02505615 42.66856934 2.0501123 41.4675293 2.07592773 C37.14563869 2.17004691 32.8239071 2.27025669 28.50219727 2.37231445 C26.63114134 2.41564622 24.76004631 2.45732257 22.88891602 2.49731445 C20.20056369 2.55505949 17.51240785 2.61874181 14.82421875 2.68359375 C13.56782845 2.70866249 13.56782845 2.70866249 12.28605652 2.73423767 C8.96326712 2.81914061 6.17247982 2.94250673 3 4 C3.33 4.99 3.66 5.98 4 7 C3.649375 7.969375 3.29875 8.93875 2.9375 9.9375 C1.69198409 12.90248137 1.69198409 12.90248137 2.875 15.375 C3.431875 16.179375 3.431875 16.179375 4 17 C2.35 17 0.7 17 -1 17 C-1.02691685 14.54159395 -1.04679802 12.08348118 -1.0625 9.625 C-1.07087891 8.92632812 -1.07925781 8.22765625 -1.08789062 7.5078125 C-1.11328125 2.2265625 -1.11328125 2.2265625 0 0 Z " fill="#E7E6E7" transform="translate(63,119)"/>
<path d="M0 0 C0.62092529 0.32145996 1.24185059 0.64291992 1.8815918 0.97412109 C6.23026846 2.40472779 10.34281678 2.35658573 14.89453125 2.4140625 C15.84188644 2.43342865 16.78924164 2.4527948 17.76530457 2.4727478 C20.78094577 2.53236371 23.79662552 2.57885705 26.8125 2.625 C28.86134446 2.66319633 30.91017314 2.70224902 32.95898438 2.7421875 C37.97252762 2.83805053 42.98614603 2.92214807 48 3 C48 3.66 48 4.32 48 5 C33.15 5 18.3 5 3 5 C2.67 4.34 2.34 3.68 2 3 C1.01 2.34 0.02 1.68 -1 1 C-0.67 0.67 -0.34 0.34 0 0 Z " fill="#3D393A" transform="translate(65,141)"/>
<path d="M0 0 C1.65 0 3.3 0 5 0 C4.8125 2.3125 4.8125 2.3125 4 5 C-5.10413017 11.88961202 -18.39808572 9.05267234 -29 8 C-25.45845523 6.04525126 -23.04452147 5.91207562 -19 6 C-18.34 5.67 -17.68 5.34 -17 5 C-17 5.66 -17 6.32 -17 7 C-14.03 7 -11.06 7 -8 7 C-7.34 5.68 -6.68 4.36 -6 3 C-5.01 3.33 -4.02 3.66 -3 4 C-3 3.34 -3 2.68 -3 2 C-3.99 1.67 -4.98 1.34 -6 1 C-4.68 1 -3.36 1 -2 1 C-2 1.99 -2 2.98 -2 4 C-0.68 4 0.64 4 2 4 C2 3.34 2 2.68 2 2 C1.34 2 0.68 2 0 2 C0 1.34 0 0.68 0 0 Z " fill="#C1C0C0" transform="translate(216,153)"/>
<path d="M0 0 C2.0625 0.4375 2.0625 0.4375 4 1 C3.01 1.495 3.01 1.495 2 2 C1.91885894 3.77007714 1.86074495 5.54122098 1.8125 7.3125 C1.77769531 8.29863281 1.74289063 9.28476563 1.70703125 10.30078125 C1.7197654 13.04616023 1.7197654 13.04616023 3.5625 14.5625 C4.036875 15.036875 4.51125 15.51125 5 16 C4.85546875 18.26171875 4.85546875 18.26171875 4.1875 20.6875 C3.86845703 21.89986328 3.86845703 21.89986328 3.54296875 23.13671875 C3.36378906 23.75160156 3.18460938 24.36648437 3 25 C3.73605469 24.98839844 4.47210938 24.97679688 5.23046875 24.96484375 C6.20628906 24.95582031 7.18210938 24.94679688 8.1875 24.9375 C9.15042969 24.92589844 10.11335937 24.91429688 11.10546875 24.90234375 C13.85576513 24.99513378 16.32479591 25.37888315 19 26 C19 26.33 19 26.66 19 27 C12.4 26.67 5.8 26.34 -1 26 C-2 24 -2 24 -3 21 C-2.01 21 -1.02 21 0 21 C0 16.38 0 11.76 0 7 C-0.66 7 -1.32 7 -2 7 C-2 6.01 -2 5.02 -2 4 C-1.34 4 -0.68 4 0 4 C-0.33 3.01 -0.66 2.02 -1 1 C-0.67 0.67 -0.34 0.34 0 0 Z " fill="#DDDCDD" transform="translate(220,76)"/>
<path d="M0 0 C0.33 0 0.66 0 1 0 C1.50744423 1.89385437 2.00564574 3.79018666 2.5 5.6875 C2.7784375 6.74324219 3.056875 7.79898438 3.34375 8.88671875 C3.9391715 11.71142672 4.12786492 14.12836708 4 17 C1.08517222 17.80967438 -0.46113217 18.21845993 -3.3125 17.0625 C-4.1478125 16.5365625 -4.1478125 16.5365625 -5 16 C-4.34 14.35 -3.68 12.7 -3 11 C-2.34 11 -1.68 11 -1 11 C-1.99 8.36 -2.98 5.72 -4 3 C-3.01 3 -2.02 3 -1 3 C-0.67 2.01 -0.34 1.02 0 0 Z " fill="#F3F3F3" transform="translate(221,25)"/>
<path d="M0 0 C2.97 0 5.94 0 9 0 C8.34 1.98 7.68 3.96 7 6 C7.99 6.33 8.98 6.66 10 7 C10.99 7.33 11.98 7.66 13 8 C11.68 8.33 10.36 8.66 9 9 C8.67 10.32 8.34 11.64 8 13 C6.5 11.6875 6.5 11.6875 5 10 C5 9.01 5 8.02 5 7 C-7.21 7 -19.42 7 -32 7 C-32 6.67 -32 6.34 -32 6 C-21.11 5.67 -10.22 5.34 1 5 C1.33 4.34 1.66 3.68 2 3 C2.66 3.33 3.32 3.66 4 4 C4.33 3.01 4.66 2.02 5 1 C3.35 1 1.7 1 0 1 C0 0.67 0 0.34 0 0 Z " fill="#565354" transform="translate(210,35)"/>
<path d="M0 0 C0.66 1.32 1.32 2.64 2 4 C-0.31 4 -2.62 4 -5 4 C-4.67 5.32 -4.34 6.64 -4 8 C-4.99 8.33 -5.98 8.66 -7 9 C-6.01 10.485 -6.01 10.485 -5 12 C-5 13.32 -5 14.64 -5 16 C-6.98 16.33 -8.96 16.66 -11 17 C-11 17.66 -11 18.32 -11 19 C-9.68 19 -8.36 19 -7 19 C-7 19.66 -7 20.32 -7 21 C-8.65 21.66 -10.3 22.32 -12 23 C-13.48510626 17.59961359 -12.48304533 13.8567054 -10 9 C-9.34 8.34 -8.68 7.68 -8 7 C-7.35232207 4.42938689 -7.35232207 4.42938689 -7 2 C-5.68 2.33 -4.36 2.66 -3 3 C-2.67 2.34 -2.34 1.68 -2 1 C-1.34 1.33 -0.68 1.66 0 2 C0 1.34 0 0.68 0 0 Z " fill="#4A4748" transform="translate(75,10)"/>
<path d="M0 0 C0 0.66 0 1.32 0 2 C-13.2 2.33 -26.4 2.66 -40 3 C-39.67 3.99 -39.34 4.98 -39 6 C-39.99 6 -40.98 6 -42 6 C-42 9.3 -42 12.6 -42 16 C-43.32 14.68 -44.64 13.36 -46 12 C-45.649375 10.906875 -45.29875 9.81375 -44.9375 8.6875 C-43.66960546 5.09079627 -43.66960546 5.09079627 -45 2 C-42.28234745 1.24339025 -39.81530656 0.85928732 -36.99755859 0.79467773 C-35.83648087 0.7647599 -35.83648087 0.7647599 -34.65194702 0.73423767 C-33.41270981 0.70916893 -33.41270981 0.70916893 -32.1484375 0.68359375 C-30.86557358 0.6524221 -30.86557358 0.6524221 -29.55679321 0.62062073 C-26.82960861 0.55536762 -24.10232885 0.49638223 -21.375 0.4375 C-19.53124042 0.39428688 -17.68749022 0.35067171 -15.84375 0.30664062 C-2.832885 0 -2.832885 0 0 0 Z " fill="#615F60" transform="translate(110,120)"/>
<path d="M0 0 C1.60407328 -0.02708567 3.2082785 -0.04643483 4.8125 -0.0625 C5.70582031 -0.07410156 6.59914062 -0.08570313 7.51953125 -0.09765625 C10 0 10 0 13 1 C13 1.66 13 2.32 13 3 C14.19625 2.814375 15.3925 2.62875 16.625 2.4375 C20.28283707 1.9688803 23.37862166 2.18518987 27 3 C26.01 3.495 26.01 3.495 25 4 C24.67 4.66 24.34 5.32 24 6 C21.91695462 6.05418326 19.83350232 6.09287551 17.75 6.125 C16.00976562 6.15980469 16.00976562 6.15980469 14.234375 6.1953125 C11.08937365 6.00539696 9.66731728 5.51761156 7 4 C4.67504723 3.61250787 2.34148732 3.27017161 0 3 C0 2.01 0 1.02 0 0 Z " fill="#222021" transform="translate(194,9)"/>
<path d="M0 0 C0.99 0.33 1.98 0.66 3 1 C3 1.66 3 2.32 3 3 C2.34 3 1.68 3 1 3 C1.7425 3.5878125 1.7425 3.5878125 2.5 4.1875 C4.45593143 6.55091715 4.24207973 8.01435003 4 11 C4.66 11.33 5.32 11.66 6 12 C5.34 12 4.68 12 4 12 C4 12.66 4 13.32 4 14 C3.01 14 2.02 14 1 14 C1.83333333 16.16666667 1.83333333 16.16666667 4 17 C2.68 17.33 1.36 17.66 0 18 C0 17.01 0 16.02 0 15 C-0.66 15 -1.32 15 -2 15 C-1.95875 14.236875 -1.9175 13.47375 -1.875 12.6875 C-1.77919176 9.77281584 -1.77919176 9.77281584 -4 7 C-4 6.34 -4 5.68 -4 5 C-3.34 5 -2.68 5 -2 5 C-2 3.68 -2 2.36 -2 1 C-1.34 0.67 -0.68 0.34 0 0 Z " fill="#5C5A5A" transform="translate(216,83)"/>
<path d="M0 0 C1.58294782 -0.05437607 3.16644256 -0.09296271 4.75 -0.125 C5.63171875 -0.14820313 6.5134375 -0.17140625 7.421875 -0.1953125 C10.1135858 0.00860498 11.69904974 0.63448279 14 2 C10.91906662 4.05395559 10.43256308 4.22502666 7 4.0625 C4.17332281 3.93936823 2.77647019 4.07450994 0 5 C-0.66 4.67 -1.32 4.34 -2 4 C-1.938125 4.78375 -1.87625 5.5675 -1.8125 6.375 C-1.874375 7.24125 -1.93625 8.1075 -2 9 C-2.99 9.66 -3.98 10.32 -5 11 C-5.66 8.69 -6.32 6.38 -7 4 C-4 2 -4 2 0 2 C0 1.34 0 0.68 0 0 Z " fill="#C4C3C3" transform="translate(70,8)"/>
<path d="M0 0 C4.2358357 -0.02469321 8.47163342 -0.04285671 12.70751953 -0.05493164 C14.1489332 -0.05996474 15.59034176 -0.06679173 17.03173828 -0.07543945 C19.10190085 -0.08754983 21.17199601 -0.09323847 23.2421875 -0.09765625 C24.4885498 -0.10289307 25.73491211 -0.10812988 27.01904297 -0.11352539 C30 0 30 0 32 1 C32 1.66 32 2.32 32 3 C23.75 3 15.5 3 7 3 C7 2.34 7 1.68 7 1 C4.69 1 2.38 1 0 1 C0 0.67 0 0.34 0 0 Z " fill="#B0AEAF" transform="translate(84,132)"/>
<path d="M0 0 C3.63 0 7.26 0 11 0 C11.33 1.65 11.66 3.3 12 5 C7.71 5 3.42 5 -1 5 C-1 5.66 -1 6.32 -1 7 C1.97 7 4.94 7 8 7 C8 7.33 8 7.66 8 8 C5.72942623 8.05398987 3.45848712 8.09278742 1.1875 8.125 C-0.70935547 8.15980469 -0.70935547 8.15980469 -2.64453125 8.1953125 C-6 8 -6 8 -9 6 C-9 5.34 -9 4.68 -9 4 C-0.585 3.505 -0.585 3.505 8 3 C8 2.34 8 1.68 8 1 C5.36 1 2.72 1 0 1 C0 0.67 0 0.34 0 0 Z " fill="#BCBABB" transform="translate(56,71)"/>
<path d="M0 0 C12.87 0 25.74 0 39 0 C39 0.66 39 1.32 39 2 C27.12 2.33 15.24 2.66 3 3 C3 2.34 3 1.68 3 1 C2.01 0.67 1.02 0.34 0 0 Z " fill="#181516" transform="translate(177,51)"/>
<path d="M0 0 C0.66 0.66 1.32 1.32 2 2 C4.10820797 1.6814823 4.10820797 1.6814823 6 1 C6 1.66 6 2.32 6 3 C6.99 3.33 7.98 3.66 9 4 C9 4.33 9 4.66 9 5 C7.35 5 5.7 5 4 5 C4 5.66 4 6.32 4 7 C-0.62 7 -5.24 7 -10 7 C-9.67 6.01 -9.34 5.02 -9 4 C-5.5625 2.375 -5.5625 2.375 -2 1 C-1.34 0.67 -0.68 0.34 0 0 Z " fill="#383536" transform="translate(138,153)"/>
<path d="M0 0 C0.66 0.99 1.32 1.98 2 3 C6.65029866 4.53698693 11.82054719 4.22552959 16.67578125 4.31640625 C17.6009404 4.33718735 18.52609955 4.35796844 19.47929382 4.37937927 C22.42362307 4.4445656 25.36803865 4.50361558 28.3125 4.5625 C30.31315983 4.60571464 32.31381106 4.64932986 34.31445312 4.69335938 C39.20954779 4.8002152 44.10472897 4.90156919 49 5 C49 5.33 49 5.66 49 6 C43.18354348 6.16867609 37.36693719 6.32911435 31.55004883 6.48217773 C29.5744019 6.53529433 27.5988124 6.59059655 25.62329102 6.64819336 C22.77112204 6.7309588 19.91883374 6.80566134 17.06640625 6.87890625 C16.19415909 6.90594131 15.32191193 6.93297638 14.42323303 6.96083069 C8.8462838 7.09422398 3.53279331 6.7254921 -2 6 C-2 5.34 -2 4.68 -2 4 C-1.34 4 -0.68 4 0 4 C0 2.68 0 1.36 0 0 Z " fill="#BBBBBB" transform="translate(67,155)"/>
<path d="M0 0 C2.64 0 5.28 0 8 0 C8 0.99 8 1.98 8 3 C6.68 3.33 5.36 3.66 4 4 C4 4.66 4 5.32 4 6 C-3.8413948 6.8895125 -11.16737959 7.00220537 -19 6 C-19 5.67 -19 5.34 -19 5 C-13.39 5 -7.78 5 -2 5 C-2 4.34 -2 3.68 -2 3 C-3.98 3 -5.96 3 -8 3 C-8 2.67 -8 2.34 -8 2 C-5.36 2 -2.72 2 0 2 C0 1.34 0 0.68 0 0 Z " fill="#CECECE" transform="translate(216,58)"/>
<path d="M0 0 C14.85 0 29.7 0 45 0 C45 0.33 45 0.66 45 1 C35.76 1.33 26.52 1.66 17 2 C17 2.33 17 2.66 17 3 C14.91673869 3.02709444 12.83337559 3.04643873 10.75 3.0625 C9.00976562 3.07990234 9.00976562 3.07990234 7.234375 3.09765625 C4.59022872 3.01782092 2.50173909 2.78643778 0 2 C0 1.34 0 0.68 0 0 Z " fill="#514E4F" transform="translate(172,48)"/>
<path d="M0 0 C3.52067351 -0.08782542 7.04106144 -0.14066643 10.5625 -0.1875 C11.55314453 -0.21263672 12.54378906 -0.23777344 13.56445312 -0.26367188 C19.53095962 -0.32313872 23.71524416 0.17602808 29 3 C29 3.33 29 3.66 29 4 C25.28400809 4.20086443 24.22791555 4.1519437 21 2 C20.67 2.66 20.34 3.32 20 4 C18.5629191 4.05422947 17.12524538 4.09289723 15.6875 4.125 C14.88699219 4.14820313 14.08648437 4.17140625 13.26171875 4.1953125 C11 4 11 4 8 2 C5.9507906 1.54860541 5.9507906 1.54860541 3.8125 1.375 C1.9253125 1.189375 1.9253125 1.189375 0 1 C0 0.67 0 0.34 0 0 Z " fill="#E6E4E5" transform="translate(72,7)"/>
<path d="M0 0 C0.33 0.66 0.66 1.32 1 2 C1.99 1.67 2.98 1.34 4 1 C3.67 3.97 3.34 6.94 3 10 C0.36 10 -2.28 10 -5 10 C-4.67 9.01 -4.34 8.02 -4 7 C-4.66 7 -5.32 7 -6 7 C-6 6.01 -6 5.02 -6 4 C-4.68 3.67 -3.36 3.34 -2 3 C-2.33 2.34 -2.66 1.68 -3 1 C-2.01 0.67 -1.02 0.34 0 0 Z " fill="#2E2B2C" transform="translate(69,109)"/>
<path d="M0 0 C3.96 0 7.92 0 12 0 C9 3 9 3 6.73168945 3.34057617 C5.86761475 3.32486572 5.00354004 3.30915527 4.11328125 3.29296875 C3.17548828 3.28330078 2.23769531 3.27363281 1.27148438 3.26367188 C0.29501953 3.23853516 -0.68144531 3.21339844 -1.6875 3.1875 C-2.67556641 3.17396484 -3.66363281 3.16042969 -4.68164062 3.14648438 C-7.12164231 3.11112203 -9.56054719 3.06177033 -12 3 C-11.42655063 5.86724686 -11.1385485 6.8614515 -9 9 C-11.31 8.67 -13.62 8.34 -16 8 C-16 6.68 -16 5.36 -16 4 C-15.34 4 -14.68 4 -14 4 C-14 3.34 -14 2.68 -14 2 C-9.38 1.67 -4.76 1.34 0 1 C0 0.67 0 0.34 0 0 Z " fill="#969596" transform="translate(233,103)"/>
<path d="M0 0 C2.475 0.495 2.475 0.495 5 1 C5 1.66 5 2.32 5 3 C-11.5 3 -28 3 -45 3 C-45 2.67 -45 2.34 -45 2 C-30.15 2 -15.3 2 0 2 C0 1.34 0 0.68 0 0 Z " fill="#343031" transform="translate(213,31)"/>
<path d="M0 0 C1.18239258 0.07831055 1.18239258 0.07831055 2.38867188 0.15820312 C4.32201529 0.28709269 6.25482164 0.42399494 8.1875 0.5625 C7.8575 1.5525 7.5275 2.5425 7.1875 3.5625 C-3.37058656 2.78345672 -3.37058656 2.78345672 -7.8125 0.5625 C-7.8125 1.2225 -7.8125 1.8825 -7.8125 2.5625 C-9.22449578 2.95472105 -10.64242764 3.32561059 -12.0625 3.6875 C-12.85140625 3.89632813 -13.6403125 4.10515625 -14.453125 4.3203125 C-17.2328071 4.60564411 -18.47137549 4.01227894 -20.8125 2.5625 C-20.8125 1.9025 -20.8125 1.2425 -20.8125 0.5625 C-18.5025 0.8925 -16.1925 1.2225 -13.8125 1.5625 C-13.8125 1.2325 -13.8125 0.9025 -13.8125 0.5625 C-9.12565199 -0.70548493 -4.77955063 -0.34855063 0 0 Z " fill="#9F9D9D" transform="translate(113.8125,8.4375)"/>
<path d="M0 0 C5.28 0 10.56 0 16 0 C16 0.66 16 1.32 16 2 C17.98 2 19.96 2 22 2 C22 2.33 22 2.66 22 3 C14.41 3 6.82 3 -1 3 C-0.67 2.01 -0.34 1.02 0 0 Z " fill="#1F1C1D" transform="translate(217,102)"/>
<path d="M0 0 C0 0.99 0 1.98 0 3 C-1.11375 2.814375 -2.2275 2.62875 -3.375 2.4375 C-6.82568861 1.68319343 -6.82568861 1.68319343 -9 3 C-10.62268991 3.09611752 -12.24947306 3.12982352 -13.875 3.125 C-14.73867187 3.12757812 -15.60234375 3.13015625 -16.4921875 3.1328125 C-18.80665971 3.01023921 -20.78289116 2.64966445 -23 2 C-23 1.34 -23 0.68 -23 0 C-15.16992004 -0.79773542 -7.80363479 -1.14500285 0 0 Z " fill="#A09E9F" transform="translate(164,9)"/>
<path d="M0 0 C0.66 0.33 1.32 0.66 2 1 C2 2.32 2 3.64 2 5 C17.84 5.495 17.84 5.495 34 6 C34 6.33 34 6.66 34 7 C22.45 7 10.9 7 -1 7 C-1.33 6.01 -1.66 5.02 -2 4 C-2.66 3.34 -3.32 2.68 -4 2 C-2.125 0.9375 -2.125 0.9375 0 0 Z " fill="#787676" transform="translate(66,146)"/>
<path d="M0 0 C1.32 0.66 2.64 1.32 4 2 C4 2.99 4 3.98 4 5 C2 6 0 7 -2 8 C-2.66 7.67 -3.32 7.34 -4 7 C-4 6.34 -4 5.68 -4 5 C-9.28 5 -14.56 5 -20 5 C-20 4.67 -20 4.34 -20 4 C-19.10796875 3.93941406 -18.2159375 3.87882812 -17.296875 3.81640625 C-15.54117188 3.69072266 -15.54117188 3.69072266 -13.75 3.5625 C-12.00976562 3.44068359 -12.00976562 3.44068359 -10.234375 3.31640625 C-7.12133032 3.09350711 -7.12133032 3.09350711 -4.640625 2.40234375 C-4.09921875 2.26957031 -3.5578125 2.13679688 -3 2 C-2.67 2.33 -2.34 2.66 -2 3 C-1.34 2.01 -0.68 1.02 0 0 Z " fill="#C6C6C6" transform="translate(221,67)"/>
<path d="M0 0 C2.64 0 5.28 0 8 0 C8.33 0.99 8.66 1.98 9 3 C9.66 3.66 10.32 4.32 11 5 C10.01 5.33 9.02 5.66 8 6 C8 5.34 8 4.68 8 4 C7.33613281 4.08378906 6.67226562 4.16757813 5.98828125 4.25390625 C-2.78207381 5.26537786 -2.78207381 5.26537786 -7 4 C-7 3.01 -7 2.02 -7 1 C-6.34 1 -5.68 1 -5 1 C-5 1.66 -5 2.32 -5 3 C-3.68 3 -2.36 3 -1 3 C-0.67 2.01 -0.34 1.02 0 0 Z " fill="#C7C6C6" transform="translate(125,5)"/>
<path d="M0 0 C2.625 1.25 2.625 1.25 5 3 C5 3.99 5 4.98 5 6 C3.68 6.33 2.36 6.66 1 7 C1.33 8.98 1.66 10.96 2 13 C0.68 13 -0.64 13 -2 13 C-2.33 11.68 -2.66 10.36 -3 9 C-2.01 9 -1.02 9 0 9 C0 8.34 0 7.68 0 7 C-0.66 6.67 -1.32 6.34 -2 6 C-1.34 5.67 -0.68 5.34 0 5 C-0.66 3.68 -1.32 2.36 -2 1 C-1.34 0.67 -0.68 0.34 0 0 Z " fill="#7F7C7D" transform="translate(219,120)"/>
<path d="M0 0 C0.66 0.33 1.32 0.66 2 1 C1.67 2.65 1.34 4.3 1 6 C-8.57 6 -18.14 6 -28 6 C-28 5.67 -28 5.34 -28 5 C-19.75 5 -11.5 5 -3 5 C-3 4.34 -3 3.68 -3 3 C-4.32 2.34 -5.64 1.68 -7 1 C-2.125 1.875 -2.125 1.875 -1 3 C-0.67 2.01 -0.34 1.02 0 0 Z " fill="#3B3939" transform="translate(119,130)"/>
<path d="M0 0 C1.65 0 3.3 0 5 0 C4.6875 2.375 4.6875 2.375 4 5 C-0.1795645 7.78637633 -2.14668677 6.79562512 -7 6 C-6.67 5.01 -6.34 4.02 -6 3 C-5.01 3.33 -4.02 3.66 -3 4 C-3 3.34 -3 2.68 -3 2 C-3.99 1.67 -4.98 1.34 -6 1 C-4.68 1 -3.36 1 -2 1 C-2 1.99 -2 2.98 -2 4 C-0.68 4 0.64 4 2 4 C2 3.34 2 2.68 2 2 C1.34 2 0.68 2 0 2 C0 1.34 0 0.68 0 0 Z " fill="#6A6969" transform="translate(216,153)"/>
<path d="M0 0 C0.33 0.66 0.66 1.32 1 2 C3.02463255 2.65213292 3.02463255 2.65213292 5 3 C4.01 3.33 3.02 3.66 2 4 C2 6.31 2 8.62 2 11 C1.360625 10.525625 0.72125 10.05125 0.0625 9.5625 C-3.92181519 7.52968613 -7.58494074 7.2789471 -12 7 C-12 6.34 -12 5.68 -12 5 C-7.71 5 -3.42 5 1 5 C0.67 3.35 0.34 1.7 0 0 Z " fill="#302D2E" transform="translate(67,71)"/>
<path d="M0 0 C4.95 0 9.9 0 15 0 C15.33 0.99 15.66 1.98 16 3 C13 4 13 4 11 4 C10.67 4.99 10.34 5.98 10 7 C8.68 6.67 7.36 6.34 6 6 C6.66 6 7.32 6 8 6 C8 4.68 8 3.36 8 2 C5.36 1.67 2.72 1.34 0 1 C0 0.67 0 0.34 0 0 Z " fill="#191617" transform="translate(101,153)"/>
<path d="M0 0 C0.33 0.66 0.66 1.32 1 2 C2.98 2 4.96 2 7 2 C7 2.66 7 3.32 7 4 C2.05 4 -2.9 4 -8 4 C-8 4.66 -8 5.32 -8 6 C-9.32 6 -10.64 6 -12 6 C-11.67 4.68 -11.34 3.36 -11 2 C-9.54176788 1.9729957 -8.08339325 1.95360213 -6.625 1.9375 C-5.81289063 1.92589844 -5.00078125 1.91429688 -4.1640625 1.90234375 C-2 2 -2 2 0 3 C0 2.01 0 1.02 0 0 Z " fill="#D3D1D1" transform="translate(55,66)"/>
<path d="M0 0 C4.48459681 0.06895277 8.96829709 0.15695445 13.45214844 0.26245117 C14.9767834 0.2956588 16.50154006 0.32370378 18.02636719 0.34643555 C20.22122954 0.38005958 22.41498088 0.43237542 24.609375 0.48828125 C25.92905273 0.51446533 27.24873047 0.54064941 28.60839844 0.56762695 C32.08666721 1.01104863 33.50191527 1.61571691 36 4 C32.65747276 4.07427838 30.1964086 4.06546953 27 3 C24.93637009 2.84970012 22.86876085 2.75155552 20.80078125 2.68359375 C19.59228516 2.64169922 18.38378906 2.59980469 17.13867188 2.55664062 C15.87603516 2.51732422 14.61339844 2.47800781 13.3125 2.4375 C12.03826172 2.39431641 10.76402344 2.35113281 9.45117188 2.30664062 C6.30089148 2.2004514 3.15053161 2.09840467 0 2 C0 1.34 0 0.68 0 0 Z " fill="#323030" transform="translate(182,16)"/>
<path d="M0 0 C0.97582031 0.10183594 1.95164063 0.20367187 2.95703125 0.30859375 C3.69308594 0.39238281 4.42914063 0.47617188 5.1875 0.5625 C5.1875 1.5525 5.1875 2.5425 5.1875 3.5625 C0.8975 3.5625 -3.3925 3.5625 -7.8125 3.5625 C-7.8125 2.9025 -7.8125 2.2425 -7.8125 1.5625 C-8.8025 1.2325 -9.7925 0.9025 -10.8125 0.5625 C-7.01982808 -0.3735342 -3.87575435 -0.42026252 0 0 Z " fill="#BBBBBB" transform="translate(214.8125,8.4375)"/>
<path d="M0 0 C3.63 0.33 7.26 0.66 11 1 C11 1.66 11 2.32 11 3 C8.36 3 5.72 3 3 3 C3.99 3.66 4.98 4.32 6 5 C6 5.66 6 6.32 6 7 C5.01 7.33 4.02 7.66 3 8 C1.5 6.8125 1.5 6.8125 0 5 C0 3.35 0 1.7 0 0 Z " fill="#D8D7D7" transform="translate(62,139)"/>
<path d="M0 0 C10.56 0 21.12 0 32 0 C32 0.33 32 0.66 32 1 C22.76 1 13.52 1 4 1 C4 1.66 4 2.32 4 3 C2.35 3 0.7 3 -1 3 C-0.67 2.01 -0.34 1.02 0 0 Z " fill="#F4F4F4" transform="translate(31,56)"/>
<path d="M0 0 C3.96 0 7.92 0 12 0 C12 0.66 12 1.32 12 2 C12.99 2.33 13.98 2.66 15 3 C12.11788698 3.96070434 10.30149956 4.10581883 7.3125 4.0625 C6.10013672 4.04896484 6.10013672 4.04896484 4.86328125 4.03515625 C3.94095703 4.01775391 3.94095703 4.01775391 3 4 C3 3.01 3 2.02 3 1 C2.01 0.67 1.02 0.34 0 0 Z " fill="#EAE9EA" transform="translate(182,54)"/>
<path d="M0 0 C-0.39803561 2.88575819 -0.79009069 3.82189513 -3.0625 5.75 C-3.701875 6.1625 -4.34125 6.575 -5 7 C-5 6.34 -5 5.68 -5 5 C-5.66 4.67 -6.32 4.34 -7 4 C-6.34 3.67 -5.68 3.34 -5 3 C-5 2.34 -5 1.68 -5 1 C-8.3 1 -11.6 1 -15 1 C-15 0.67 -15 0.34 -15 0 C-4.44191344 -2.66514806 -4.44191344 -2.66514806 0 0 Z " fill="#D9D8D9" transform="translate(224,21)"/>
<path d="M0 0 C0 1.98 0 3.96 0 6 C-2.25 7.1875 -2.25 7.1875 -5 8 C-7.0625 6.75 -7.0625 6.75 -9 5 C-10.31836295 4.30419733 -11.64791086 3.62775567 -13 3 C-10.02148438 2.70703125 -10.02148438 2.70703125 -7.04296875 2.4140625 C-4.27846244 1.85376103 -2.85683422 0 0 0 Z " fill="#A9A9A9" transform="translate(223,12)"/>
<path d="M0 0 C0 0.33 0 0.66 0 1 C-5.94 1 -11.88 1 -18 1 C-11.3825841 -3.96306193 -6.98169312 -3.56208833 0 0 Z " fill="#1D1B1B" transform="translate(205,14)"/>
<path d="M0 0 C4.455 0.99 4.455 0.99 9 2 C8.67 2.99 8.34 3.98 8 5 C8 4.34 8 3.68 8 3 C6.35 3.66 4.7 4.32 3 5 C3 5.66 3 6.32 3 7 C1.68 7.33 0.36 7.66 -1 8 C-1.33 6.02 -1.66 4.04 -2 2 C-1.34 2 -0.68 2 0 2 C0 1.34 0 0.68 0 0 Z " fill="#434142" transform="translate(106,9)"/>
<path d="M0 0 C-0.66 0.66 -1.32 1.32 -2 2 C-5.125 1.625 -5.125 1.625 -8 1 C-8 1.33 -8 1.66 -8 2 C-10.875 2.125 -10.875 2.125 -14 2 C-14.66 1.34 -15.32 0.68 -16 0 C-14.12696296 -1.87303704 -11.08263116 -1.47495882 -8.5625 -1.6875 C-7.38816406 -1.79449219 -6.21382812 -1.90148438 -5.00390625 -2.01171875 C-2 -2 -2 -2 0 0 Z " fill="#7B7879" transform="translate(181,10)"/>
<path d="M0 0 C1.99954746 -0.04254356 4.00041636 -0.04080783 6 0 C6.33 0.33 6.66 0.66 7 1 C10.01097414 1.03188626 13.00995052 0.9314875 16.01953125 0.83984375 C19.01742713 1.00093645 20.42375 1.59379543 23 3 C19.6046836 3.19777236 16.20874308 3.38139685 12.8125 3.5625 C11.85279297 3.61857422 10.89308594 3.67464844 9.90429688 3.73242188 C8.50727539 3.80493164 8.50727539 3.80493164 7.08203125 3.87890625 C6.22843018 3.9260376 5.3748291 3.97316895 4.49536133 4.02172852 C1.87646242 3.99892429 -0.45403152 3.59213206 -3 3 C-2.01 2.67 -1.02 2.34 0 2 C0 1.34 0 0.68 0 0 Z " fill="#979696" transform="translate(119,158)"/>
<path d="M0 0 C2.97 0.495 2.97 0.495 6 1 C6 1.99 6 2.98 6 4 C6.73605469 3.98839844 7.47210938 3.97679688 8.23046875 3.96484375 C9.20628906 3.95582031 10.18210938 3.94679688 11.1875 3.9375 C12.15042969 3.92589844 13.11335937 3.91429688 14.10546875 3.90234375 C16.85576513 3.99513378 19.32479591 4.37888315 22 5 C22 5.33 22 5.66 22 6 C15.4 5.67 8.8 5.34 2 5 C1 3 1 3 0 0 Z " fill="#C9C8C9" transform="translate(217,97)"/>
<path d="M0 0 C0.33 0.99 0.66 1.98 1 3 C1.66 3 2.32 3 3 3 C2.67 3.99 2.34 4.98 2 6 C1.01 6 0.02 6 -1 6 C-1.33 7.32 -1.66 8.64 -2 10 C-2.99 9.67 -3.98 9.34 -5 9 C-4.67 7.35 -4.34 5.7 -4 4 C-2.68 3.67 -1.36 3.34 0 3 C0 2.01 0 1.02 0 0 Z " fill="#464344" transform="translate(68,28)"/>
<path d="M0 0 C0.99 0 1.98 0 3 0 C3 1.32 3 2.64 3 4 C2.34 4 1.68 4 1 4 C1 4.66 1 5.32 1 6 C1.66 6.33 2.32 6.66 3 7 C2.01 7 1.02 7 0 7 C0 7.66 0 8.32 0 9 C1.32 9 2.64 9 4 9 C4 9.66 4 10.32 4 11 C2.35 11.66 0.7 12.32 -1 13 C-2.20577428 8.05632546 -1.6290678 4.79137588 0 0 Z " fill="#C0BDBE" transform="translate(64,20)"/>
<path d="M0 0 C6.93 0.495 6.93 0.495 14 1 C14 1.66 14 2.32 14 3 C11.69 3 9.38 3 7 3 C6.67 3.99 6.34 4.98 6 6 C5.34 5.67 4.68 5.34 4 5 C4 4.34 4 3.68 4 3 C2.68 2.67 1.36 2.34 0 2 C0 1.34 0 0.68 0 0 Z " fill="#E1E0E0" transform="translate(133,6)"/>
<path d="M0 0 C0 0.66 0 1.32 0 2 C-3.5537235 2.08076644 -6.5852296 1.96040418 -10 1 C-11.99788438 0.65421232 -13.99759451 0.31856451 -16 0 C-10.12327367 -3.91781755 -5.95825077 -3.19192006 0 0 Z " fill="#413E3F" transform="translate(184,158)"/>
<path d="M0 0 C2.31 0.66 4.62 1.32 7 2 C7 2.66 7 3.32 7 4 C6.01 4 5.02 4 4 4 C4.33 5.32 4.66 6.64 5 8 C3.68 8 2.36 8 1 8 C0.34 5.69 -0.32 3.38 -1 1 C-0.67 0.67 -0.34 0.34 0 0 Z " fill="#4E4B4C" transform="translate(212,125)"/>
<path d="M0 0 C3.3 0 6.6 0 10 0 C9.67 1.98 9.34 3.96 9 6 C6.69 6 4.38 6 2 6 C2 5.34 2 4.68 2 4 C3.32 3.67 4.64 3.34 6 3 C5.67 3 5.34 3 5 3 C4.01 3 3.02 3 2 3 C2 2.34 2 1.68 2 1 C1.34 0.67 0.68 0.34 0 0 Z " fill="#454243" transform="translate(208,76)"/>
<path d="M0 0 C2.31 0 4.62 0 7 0 C7.33 0.99 7.66 1.98 8 3 C10.97 3 13.94 3 17 3 C17 3.33 17 3.66 17 4 C14.72942623 4.05398987 12.45848712 4.09278742 10.1875 4.125 C8.29064453 4.15980469 8.29064453 4.15980469 6.35546875 4.1953125 C3 4 3 4 0 2 C0 1.34 0 0.68 0 0 Z " fill="#A8A7A7" transform="translate(47,75)"/>
<path d="M0 0 C1.2065625 0.0309375 1.2065625 0.0309375 2.4375 0.0625 C2.4375 2.7025 2.4375 5.3425 2.4375 8.0625 C0.5625 7.9375 0.5625 7.9375 -1.5625 7.0625 C-2.8125 4 -2.8125 4 -3.5625 1.0625 C-2.5625 0.0625 -2.5625 0.0625 0 0 Z " fill="#8D8B8C" transform="translate(217.5625,134.9375)"/>
<path d="M0 0 C2.64 0.33 5.28 0.66 8 1 C8 1.99 8 2.98 8 4 C10.64 4 13.28 4 16 4 C15.360625 4.103125 14.72125 4.20625 14.0625 4.3125 C13.381875 4.539375 12.70125 4.76625 12 5 C11.67 5.99 11.34 6.98 11 8 C10.34 8 9.68 8 9 8 C9 7.01 9 6.02 9 5 C7.68 5 6.36 5 5 5 C4.33333333 3.66666667 3.66666667 2.33333333 3 1 C2.01 0.67 1.02 0.34 0 0 Z " fill="#4A4748" transform="translate(177,54)"/>
<path d="M0 0 C0.99 -0.33 1.98 -0.66 3 -1 C3.33 -0.01 3.66 0.98 4 2 C1.87527424 2.05386629 -0.24983652 2.09273071 -2.375 2.125 C-4.15003906 2.15980469 -4.15003906 2.15980469 -5.9609375 2.1953125 C-9 2 -9 2 -11 0 C-7.04707623 -2.84610511 -4.38281666 -1.35468878 0 0 Z " fill="#656263" transform="translate(134,10)"/>
<path d="M0 0 C1.65 0 3.3 0 5 0 C5.33 0.99 5.66 1.98 6 3 C-1.8413948 3.8895125 -9.16737959 4.00220537 -17 3 C-17 2.67 -17 2.34 -17 2 C-11.39 2 -5.78 2 0 2 C0 1.34 0 0.68 0 0 Z " fill="#797878" transform="translate(214,61)"/>
<path d="M0 0 C5.28 0 10.56 0 16 0 C15.01 0.33 14.02 0.66 13 1 C13 1.66 13 2.32 13 3 C9.04 3 5.08 3 1 3 C0.67 2.01 0.34 1.02 0 0 Z " fill="#1D191A" transform="translate(200,30)"/>
<path d="M0 0 C1.60407328 -0.02708567 3.2082785 -0.04643483 4.8125 -0.0625 C5.70582031 -0.07410156 6.59914062 -0.08570313 7.51953125 -0.09765625 C10 0 10 0 13 1 C12.67 2.32 12.34 3.64 12 5 C11.67 4.34 11.34 3.68 11 3 C7.37 3 3.74 3 0 3 C0 2.01 0 1.02 0 0 Z " fill="#6A6768" transform="translate(194,9)"/>
<path d="M0 0 C0.33 0.66 0.66 1.32 1 2 C0.01 2 -0.98 2 -2 2 C-2 5.3 -2 8.6 -2 12 C-3.32 10.68 -4.64 9.36 -6 8 C-4.52307692 2.33846154 -4.52307692 2.33846154 -1.875 0.625 C-0.946875 0.315625 -0.946875 0.315625 0 0 Z " fill="#8D8B8B" transform="translate(70,124)"/>
<path d="M0 0 C0.99 0.33 1.98 0.66 3 1 C3.33 1.99 3.66 2.98 4 4 C4.66 4.66 5.32 5.32 6 6 C5.195625 6.2475 4.39125 6.495 3.5625 6.75 C0.828919 7.72238859 0.828919 7.72238859 0.1875 10.125 C0.125625 10.74375 0.06375 11.3625 0 12 C-0.33 10.35 -0.66 8.7 -1 7 C-0.34 7 0.32 7 1 7 C0.67 4.69 0.34 2.38 0 0 Z " fill="#424041" transform="translate(67,96)"/>
<path d="M0 0 C0.66 0 1.32 0 2 0 C1.67 1.65 1.34 3.3 1 5 C0.34 5 -0.32 5 -1 5 C-0.67 6.32 -0.34 7.64 0 9 C-1.32 9 -2.64 9 -4 9 C-4.33 8.01 -4.66 7.02 -5 6 C-4.67 5.34 -4.34 4.68 -4 4 C-3.34 4 -2.68 4 -2 4 C-1.34 2.68 -0.68 1.36 0 0 Z " fill="#343132" transform="translate(153,151)"/>
<path d="M0 0 C4.95 0 9.9 0 15 0 C15.33 1.32 15.66 2.64 16 4 C15.34 4 14.68 4 14 4 C14 3.34 14 2.68 14 2 C11.69 2.33 9.38 2.66 7 3 C7 2.34 7 1.68 7 1 C4.69 1 2.38 1 0 1 C0 0.67 0 0.34 0 0 Z " fill="#3F3C3D" transform="translate(204,67)"/>
<path d="M0 0 C-0.33 1.65 -0.66 3.3 -1 5 C-3.64 5 -6.28 5 -9 5 C-8.67 4.01 -8.34 3.02 -8 2 C-5.27366306 0.89786379 -2.95855967 0 0 0 Z " fill="#4F4D4D" transform="translate(137,155)"/>
<path d="M0 0 C0.66 0.99 1.32 1.98 2 3 C4.18505129 3.79437923 4.18505129 3.79437923 6.625 4.1875 C7.85089844 4.42533203 7.85089844 4.42533203 9.1015625 4.66796875 C9.72804688 4.77753906 10.35453125 4.88710937 11 5 C7.8250906 6.9078584 5.89414789 7.1609041 2.25 6.625 C1.45078125 6.51414063 0.6515625 6.40328125 -0.171875 6.2890625 C-0.77515625 6.19367188 -1.3784375 6.09828125 -2 6 C-2 5.34 -2 4.68 -2 4 C-1.34 4 -0.68 4 0 4 C0 2.68 0 1.36 0 0 Z " fill="#ADADAD" transform="translate(67,155)"/>
<path d="M0 0 C0.99 0.33 1.98 0.66 3 1 C3.6875 3.0625 3.6875 3.0625 4 5 C1.69 5.66 -0.62 6.32 -3 7 C-2.67 5.68 -2.34 4.36 -2 3 C-2.66 2.67 -3.32 2.34 -4 2 C-2.68 2 -1.36 2 0 2 C0 1.34 0 0.68 0 0 Z " fill="#302C2D" transform="translate(164,153)"/>
<path d="M0 0 C0 0.66 0 1.32 0 2 C-0.99 2.495 -0.99 2.495 -2 3 C-2 4.32 -2 5.64 -2 7 C-3.32 6.67 -4.64 6.34 -6 6 C-5.67 5.34 -5.34 4.68 -5 4 C-5.66 4 -6.32 4 -7 4 C-7 3.01 -7 2.02 -7 1 C-2.25 0 -2.25 0 0 0 Z " fill="#676565" transform="translate(70,112)"/>
<path d="M0 0 C3.3 0 6.6 0 10 0 C9.67 0.99 9.34 1.98 9 3 C8.01 3 7.02 3 6 3 C5.67 2.67 5.34 2.34 5 2 C3.02 2.99 3.02 2.99 1 4 C0.34 3.34 -0.32 2.68 -1 2 C-0.67 1.34 -0.34 0.68 0 0 Z " fill="#656364" transform="translate(183,9)"/>
<path d="M0 0 C0.66 0 1.32 0 2 0 C2 1.32 2 2.64 2 4 C3.65 3.67 5.3 3.34 7 3 C7.33 3.66 7.66 4.32 8 5 C7.67 5.66 7.34 6.32 7 7 C4.36 6.67 1.72 6.34 -1 6 C-0.67 4.02 -0.34 2.04 0 0 Z " fill="#322F30" transform="translate(121,153)"/>
<path d="M0 0 C0.66 0 1.32 0 2 0 C2 0.99 2 1.98 2 3 C2.66 3.33 3.32 3.66 4 4 C3.34 4 2.68 4 2 4 C2 4.66 2 5.32 2 6 C1.01 6 0.02 6 -1 6 C-0.16666667 8.16666667 -0.16666667 8.16666667 2 9 C0.68 9.33 -0.64 9.66 -2 10 C-2 9.01 -2 8.02 -2 7 C-2.66 7 -3.32 7 -4 7 C-4 6.34 -4 5.68 -4 5 C-3.01 4.67 -2.02 4.34 -1 4 C-0.34 4.33 0.32 4.66 1 5 C0.67 3.35 0.34 1.7 0 0 Z " fill="#787576" transform="translate(218,91)"/>
<path d="M0 0 C0.66 0 1.32 0 2 0 C1.67 1.65 1.34 3.3 1 5 C2.65 5 4.3 5 6 5 C6 5.33 6 5.66 6 6 C4.02 6 2.04 6 0 6 C0 6.99 0 7.98 0 9 C-0.99 9 -1.98 9 -3 9 C-3 8.01 -3 7.02 -3 6 C-2.34 5.67 -1.68 5.34 -1 5 C-1 3.68 -1 2.36 -1 1 C-0.67 0.67 -0.34 0.34 0 0 Z " fill="#A1A0A1" transform="translate(67,90)"/>
<path d="M0 0 C1.98 0 3.96 0 6 0 C7 3 7 3 6 6 C3.5625 5.25 3.5625 5.25 1 4 C0.1875 1.875 0.1875 1.875 0 0 Z " fill="#6C6B6B" transform="translate(213,22)"/>
<path d="M0 0 C0.886875 0.53625 1.77375 1.0725 2.6875 1.625 C2.6875 1.955 2.6875 2.285 2.6875 2.625 C-0.9425 2.625 -4.5725 2.625 -8.3125 2.625 C-8.3125 1.965 -8.3125 1.305 -8.3125 0.625 C-4.8011922 -1.33720142 -3.82270308 -1.58678241 0 0 Z " fill="#4B494A" transform="translate(195.3125,157.375)"/>
<path d="M0 0 C2.4375 0.75 2.4375 0.75 5 2 C5.8125 4.125 5.8125 4.125 6 6 C3.69 5.67 1.38 5.34 -1 5 C-1 1 -1 1 0 0 Z " fill="#322E2F" transform="translate(211,96)"/>
<path d="M0 0 C1.32 0.33 2.64 0.66 4 1 C4 1.66 4 2.32 4 3 C-2.27 3 -8.54 3 -15 3 C-15 2.67 -15 2.34 -15 2 C-10.05 2 -5.1 2 0 2 C0 1.34 0 0.68 0 0 Z " fill="#343232" transform="translate(62,68)"/>
<path d="M0 0 C0 1.65 0 3.3 0 5 C-0.33 4.34 -0.66 3.68 -1 3 C-6.28 3 -11.56 3 -17 3 C-17 2.67 -17 2.34 -17 2 C-16.08476562 1.93941406 -15.16953125 1.87882812 -14.2265625 1.81640625 C-12.44378906 1.69072266 -12.44378906 1.69072266 -10.625 1.5625 C-9.44164062 1.48128906 -8.25828125 1.40007812 -7.0390625 1.31640625 C-4.40001916 1.04164724 -2.56464354 0 0 0 Z " fill="#8B898A" transform="translate(218,69)"/>
<path d="M0 0 C1.66666667 0 3.33333333 0 5 0 C5 0.66 5 1.32 5 2 C5.66 2 6.32 2 7 2 C7 2.66 7 3.32 7 4 C4.03 4 1.06 4 -2 4 C-2 3.34 -2 2.68 -2 2 C-1.34 2 -0.68 2 0 2 C0 1.34 0 0.68 0 0 Z " fill="#4E4C4D" transform="translate(201,156)"/>
<path d="M0 0 C2.15377564 2.62198774 3.40072174 4.64404172 4 8 C2.68 8 1.36 8 0 8 C-1.125 5.6875 -1.125 5.6875 -2 3 C-1.34 2.01 -0.68 1.02 0 0 Z " fill="#3F3D3E" transform="translate(215,88)"/>
<path d="M0 0 C0.99 0.33 1.98 0.66 3 1 C3 1.66 3 2.32 3 3 C2.34 3 1.68 3 1 3 C1 3.99 1 4.98 1 6 C1.66 6 2.32 6 3 6 C3 7.98 3 9.96 3 12 C2.01 12 1.02 12 0 12 C0 11.01 0 10.02 0 9 C0.66 9 1.32 9 2 9 C2 8.34 2 7.68 2 7 C1.34 7 0.68 7 0 7 C0 4.69 0 2.38 0 0 Z " fill="#9F9E9E" transform="translate(217,77)"/>
<path d="M0 0 C0.99 0.33 1.98 0.66 3 1 C4.2171453 4.00628239 3.98183704 6.58167569 3.5625 9.75 C3.40974609 10.94882812 3.40974609 10.94882812 3.25390625 12.171875 C3.12822266 13.07679687 3.12822266 13.07679687 3 14 C2.67 14 2.34 14 2 14 C1.34 9.38 0.68 4.76 0 0 Z " fill="#7C7778" transform="translate(65,39)"/>
<path d="M0 0 C-0.33 1.32 -0.66 2.64 -1 4 C-2.32 4 -3.64 4 -5 4 C-5.66 2.68 -6.32 1.36 -7 0 C-4.3333581 -1.33332095 -2.83319697 -0.67102033 0 0 Z " fill="#BDBBBC" transform="translate(225,148)"/>
<path d="M0 0 C1.65 0 3.3 0 5 0 C4.01 0.495 4.01 0.495 3 1 C3.33 2.98 3.66 4.96 4 7 C2.68 7 1.36 7 0 7 C-0.33 5.68 -0.66 4.36 -1 3 C-0.01 3 0.98 3 2 3 C2 2.34 2 1.68 2 1 C1.34 0.67 0.68 0.34 0 0 Z " fill="#C6C4C4" transform="translate(217,126)"/>
<path d="M0 0 C0.12375 0.61875 0.2475 1.2375 0.375 1.875 C0.87197356 4.19120832 0.87197356 4.19120832 3 6 C0.69 5.67 -1.62 5.34 -4 5 C-4 3.68 -4 2.36 -4 1 C-2 0 -2 0 0 0 Z " fill="#D8D8D8" transform="translate(221,106)"/>
<path d="M0 0 C-0.99 0.33 -1.98 0.66 -3 1 C-3.73323796 3.01508358 -3.73323796 3.01508358 -4 5 C-4.99 4.67 -5.98 4.34 -7 4 C-6.625 2.0625 -6.625 2.0625 -6 0 C-3.50907189 -1.24546405 -2.58919267 -0.7767578 0 0 Z " fill="#2B2829" transform="translate(217,83)"/>
<path d="M0 0 C0.99 0 1.98 0 3 0 C3 0.99 3 1.98 3 3 C-1.95 3 -6.9 3 -12 3 C-12 2.67 -12 2.34 -12 2 C-8.04 2 -4.08 2 0 2 C0 1.34 0 0.68 0 0 Z " fill="#A19FA0" transform="translate(184,158)"/>
<path d="M0 0 C1.65 0 3.3 0 5 0 C4.01 0.495 4.01 0.495 3 1 C3 1.66 3 2.32 3 3 C3.61875 2.79375 4.2375 2.5875 4.875 2.375 C5.926875 2.189375 5.926875 2.189375 7 2 C7.66 2.66 8.32 3.32 9 4 C5.23375329 5.25541557 3.62811066 4.37061958 0 3 C0 2.01 0 1.02 0 0 Z " fill="#424141" transform="translate(68,155)"/>
<path d="M0 0 C1.98 0 3.96 0 6 0 C5.01 0.495 5.01 0.495 4 1 C3.34786708 3.02463255 3.34786708 3.02463255 3 5 C2.01 5 1.02 5 0 5 C-0.33 4.01 -0.66 3.02 -1 2 C-0.67 1.34 -0.34 0.68 0 0 Z " fill="#242122" transform="translate(90,155)"/>
<path d="M0 0 C1.65 0 3.3 0 5 0 C4.75 2.375 4.75 2.375 4 5 C1.9375 6.3125 1.9375 6.3125 0 7 C0 6.34 0 5.68 0 5 C0.66 5 1.32 5 2 5 C2 4.01 2 3.02 2 2 C1.34 2 0.68 2 0 2 C0 1.34 0 0.68 0 0 Z " fill="#D3D2D2" transform="translate(216,153)"/>
<path d="M0 0 C0.99 0 1.98 0 3 0 C3 0.66 3 1.32 3 2 C3.99 2.33 4.98 2.66 6 3 C6 3.33 6 3.66 6 4 C4.35 4 2.7 4 1 4 C0.67 4.66 0.34 5.32 0 6 C-1.125 2.25 -1.125 2.25 0 0 Z " fill="#2F2C2D" transform="translate(141,154)"/>
<path d="M0 0 C1.98 0 3.96 0 6 0 C5.01 1.98 4.02 3.96 3 6 C1.68 5.67 0.36 5.34 -1 5 C-0.34 5 0.32 5 1 5 C0.67 3.35 0.34 1.7 0 0 Z " fill="#242122" transform="translate(108,154)"/>
<path d="M0 0 C0.66 0 1.32 0 2 0 C2 0.66 2 1.32 2 2 C2.99 1.67 3.98 1.34 5 1 C5.66 2.65 6.32 4.3 7 6 C6.01 6.33 5.02 6.66 4 7 C3.67 6.01 3.34 5.02 3 4 C2.01 3.67 1.02 3.34 0 3 C0 2.01 0 1.02 0 0 Z " fill="#363334" transform="translate(211,109)"/>
<path d="M0 0 C0.33 0.66 0.66 1.32 1 2 C1.66 2.33 2.32 2.66 3 3 C2.67 3.66 2.34 4.32 2 5 C0.35 5 -1.3 5 -3 5 C-3 3.68 -3 2.36 -3 1 C-2.01 0.67 -1.02 0.34 0 0 Z " fill="#4D4B4B" transform="translate(158,155)"/>
<path d="M0 0 C0.99 0.33 1.98 0.66 3 1 C2.34 1 1.68 1 1 1 C1.66 2.32 2.32 3.64 3 5 C1.02 5 -0.96 5 -3 5 C-2.625 3.0625 -2.625 3.0625 -2 1 C-1.34 0.67 -0.68 0.34 0 0 Z " fill="#3E3C3D" transform="translate(96,155)"/>
<path d="M0 0 C1.42944945 2.35438733 2.08661261 3.48032433 1.625 6.25 C1.41875 6.8275 1.2125 7.405 1 8 C-0.65 8 -2.3 8 -4 8 C-3.67 7.01 -3.34 6.02 -3 5 C-2.01 5 -1.02 5 0 5 C0 3.35 0 1.7 0 0 Z " fill="#EFEDEE" transform="translate(223,90)"/>
<path d="M0 0 C2.64 0.33 5.28 0.66 8 1 C7.01 1.495 7.01 1.495 6 2 C5.67 2.66 5.34 3.32 5 4 C3.35 4 1.7 4 0 4 C0 2.68 0 1.36 0 0 Z " fill="#393939" transform="translate(213,11)"/>
<path d="M0 0 C1.60875 0.2784375 1.60875 0.2784375 3.25 0.5625 C6.40391546 0.9304568 8.09818492 1.04465343 11 0 C9 3 9 3 6.625 3.8125 C3.70744102 4.02089707 2.4404341 3.53656962 0 2 C0 1.34 0 0.68 0 0 Z " fill="#696768" transform="translate(93,9)"/>
<path d="M0 0 C1.32 0.66 2.64 1.32 4 2 C3.67 2.99 3.34 3.98 3 5 C1.35 5 -0.3 5 -2 5 C-1.125 1.125 -1.125 1.125 0 0 Z " fill="#3B393A" transform="translate(113,155)"/>
<path d="M0 0 C2.97 0.99 5.94 1.98 9 3 C8.67 3.66 8.34 4.32 8 5 C6.35 5 4.7 5 3 5 C2.67 4.34 2.34 3.68 2 3 C1.01 2.34 0.02 1.68 -1 1 C-0.67 0.67 -0.34 0.34 0 0 Z " fill="#565354" transform="translate(65,141)"/>
<path d="M0 0 C1.9375 0.8125 1.9375 0.8125 4 2 C4.33 2.99 4.66 3.98 5 5 C4.01 5.33 3.02 5.66 2 6 C1.01 5.01 0.02 4.02 -1 3 C-0.67 2.01 -0.34 1.02 0 0 Z " fill="#D2D1D1" transform="translate(63,141)"/>
<path d="M0 0 C1.32 0.33 2.64 0.66 4 1 C4 1.66 4 2.32 4 3 C3.34 3 2.68 3 2 3 C2.33 4.65 2.66 6.3 3 8 C2.01 7.67 1.02 7.34 0 7 C0 4.69 0 2.38 0 0 Z " fill="#A9A7A7" transform="translate(64,100)"/>
<path d="M0 0 C2.31 0.33 4.62 0.66 7 1 C7 1.66 7 2.32 7 3 C3.71303767 3.79953138 2.28976808 4.09658936 -1 3 C-0.34 2.67 0.32 2.34 1 2 C0.67 1.34 0.34 0.68 0 0 Z " fill="#666365" transform="translate(60,63)"/>
<path d="M0 0 C0.66 0.99 1.32 1.98 2 3 C1.67 3.99 1.34 4.98 1 6 C-0.65 5.67 -2.3 5.34 -4 5 C-4 4.34 -4 3.68 -4 3 C-2 1.375 -2 1.375 0 0 Z " fill="#FEFEFE" transform="translate(224,42)"/>
<path d="M0 0 C2.97 0.495 2.97 0.495 6 1 C4.8125 2.5 4.8125 2.5 3 4 C0.3125 4.1875 0.3125 4.1875 -2 4 C-1.34 2.68 -0.68 1.36 0 0 Z " fill="#939191" transform="translate(78,8)"/>
<path d="M0 0 C2.97 0 5.94 0 9 0 C7.515 1.485 7.515 1.485 6 3 C2.8125 2.6875 2.8125 2.6875 0 2 C0 1.34 0 0.68 0 0 Z " fill="#918E8F" transform="translate(141,9)"/>
<path d="M0 0 C2.97 0.99 5.94 1.98 9 3 C9 3.33 9 3.66 9 4 C5.28400809 4.20086443 4.22791555 4.1519437 1 2 C0.67 2.66 0.34 3.32 0 4 C0 2.68 0 1.36 0 0 Z " fill="#BCBABA" transform="translate(92,7)"/>
<path d="M0 0 C0.12375 0.5775 0.2475 1.155 0.375 1.75 C1.00648824 4.02335767 1.88858191 5.9253529 3 8 C1.35 8 -0.3 8 -2 8 C-1.125 1.125 -1.125 1.125 0 0 Z " fill="#E9E9E9" transform="translate(64,128)"/>
<path d="M0 0 C0.66 0.33 1.32 0.66 2 1 C1.67 1.66 1.34 2.32 1 3 C1.66 3.33 2.32 3.66 3 4 C3 4.66 3 5.32 3 6 C0.03 5.505 0.03 5.505 -3 5 C-2 2 -2 2 0 0 Z " fill="#7D7B7B" transform="translate(216,106)"/>
<path d="M0 0 C2.31 0 4.62 0 7 0 C7 1.32 7 2.64 7 4 C5.68 4 4.36 4 3 4 C3 3.01 3 2.02 3 1 C2.01 0.67 1.02 0.34 0 0 Z " fill="#CFCDCE" transform="translate(182,54)"/>
<path d="M0 0 C0.33 0 0.66 0 1 0 C1.33 2.64 1.66 5.28 2 8 C1.01 8 0.02 8 -1 8 C-1.125 2.25 -1.125 2.25 0 0 Z " fill="#B5B4B4" transform="translate(65,43)"/>
<path d="M0 0 C2 2 2 2 2.125 4.625 C2.08375 5.40875 2.0425 6.1925 2 7 C0.68 6.34 -0.64 5.68 -2 5 C-1.34 3.35 -0.68 1.7 0 0 Z " fill="#B8B5B6" transform="translate(218,36)"/>
<path d="M0 0 C1.4540625 0.0309375 1.4540625 0.0309375 2.9375 0.0625 C2.2775 1.3825 1.6175 2.7025 0.9375 4.0625 C-0.0525 4.0625 -1.0425 4.0625 -2.0625 4.0625 C-2.0625 3.4025 -2.0625 2.7425 -2.0625 2.0625 C-2.7225 1.7325 -3.3825 1.4025 -4.0625 1.0625 C-3.0625 0.0625 -3.0625 0.0625 0 0 Z " fill="#1D1A1B" transform="translate(161.0625,11.9375)"/>
<path d="M0 0 C3 0 6 0 9 0 C9 0.99 9 1.98 9 3 C7.02 3 5.04 3 3 3 C3 2.34 3 1.68 3 1 C2.01 0.67 1.02 0.34 0 0 Z " fill="#959494" transform="translate(204,9)"/>
<path d="M0 0 C1.32 0.66 2.64 1.32 4 2 C3.67 2.66 3.34 3.32 3 4 C2.34 4 1.68 4 1 4 C0.67 4.66 0.34 5.32 0 6 C-0.38218767 4.34385343 -0.71395102 2.67542976 -1 1 C-0.67 0.67 -0.34 0.34 0 0 Z " fill="#565455" transform="translate(217,144)"/>
<path d="M0 0 C2.97 0 5.94 0 9 0 C9 0.33 9 0.66 9 1 C7.35 1 5.7 1 4 1 C4 1.66 4 2.32 4 3 C2.68 3 1.36 3 0 3 C0 2.01 0 1.02 0 0 Z " fill="#BCBCBC" transform="translate(43,69)"/>
<path d="M0 0 C0.99 0.66 1.98 1.32 3 2 C3 3.32 3 4.64 3 6 C1.35 6 -0.3 6 -2 6 C-2 5.34 -2 4.68 -2 4 C-1.34 4 -0.68 4 0 4 C0 2.68 0 1.36 0 0 Z " fill="#595757" transform="translate(67,20)"/>
<path d="M0 0 C2.475 0.99 2.475 0.99 5 2 C4.67 2.99 4.34 3.98 4 5 C1.9375 5.6875 1.9375 5.6875 0 6 C0.33 5.01 0.66 4.02 1 3 C-0.32 2.67 -1.64 2.34 -3 2 C-2.01 2 -1.02 2 0 2 C0 1.34 0 0.68 0 0 Z " fill="#BDBCBC" transform="translate(192,6)"/>
</svg>
