<?xml version="1.0" standalone="no"?>
<!DOCTYPE svg PUBLIC "-//W3C//DTD SVG 20010904//EN"
 "http://www.w3.org/TR/2001/REC-SVG-20010904/DTD/svg10.dtd">
<svg version="1.0" xmlns="http://www.w3.org/2000/svg"
 width="322.000000pt" height="303.000000pt" viewBox="0 0 322.000000 303.000000"
 preserveAspectRatio="xMidYMid meet">
<metadata>
Created by potrace 1.16, written by Peter Selinger 2001-2019
</metadata>
<g transform="translate(0.000000,303.000000) scale(0.100000,-0.100000)"
fill="#000000" stroke="none">
<path d="M1180 2194 c0 -6 -37 -11 -91 -11 -60 -1 -94 -5 -99 -13 -6 -9 -10
-9 -16 1 -6 10 -10 6 -14 -16 -5 -27 -10 -31 -50 -36 -40 -5 -41 -6 -12 -9 17
-1 38 -3 44 -4 20 -2 22 -36 3 -36 -9 0 -13 -4 -10 -10 3 -5 1 -10 -4 -10 -19
0 -12 -17 12 -28 17 -8 18 -11 5 -11 -10 -1 -18 -5 -18 -11 0 -6 -87 -11 -237
-12 l-238 -2 234 -6 c172 -4 235 -8 238 -17 4 -10 -39 -13 -179 -16 l-183 -2
191 -3 c105 -1 193 -5 196 -8 4 -3 2 -18 -2 -34 -4 -16 -5 -31 -2 -35 4 -3 7
-19 8 -35 2 -38 -14 -43 -161 -50 l-120 -6 138 -2 c106 -2 138 -5 135 -14 -3
-9 -45 -15 -144 -18 -140 -6 -142 -11 -4 -15 114 -3 122 -4 115 -15 -3 -5 -17
-10 -31 -10 -13 0 -24 -4 -24 -9 0 -4 11 -6 25 -3 14 2 25 0 25 -6 0 -7 -28
-13 -67 -15 -65 -3 -65 -3 18 -5 77 -2 87 -4 92 -22 5 -18 0 -20 -56 -21 -34
-1 -71 0 -82 1 -11 1 -17 -1 -13 -5 5 -6 66 -17 146 -27 20 -2 8 -23 -16 -26
-18 -3 -20 -6 -9 -16 7 -7 19 -15 27 -19 11 -4 9 -7 -7 -12 -32 -10 -29 -25 5
-26 15 0 21 -3 14 -6 -10 -4 -10 -8 0 -20 10 -12 9 -17 -5 -24 -13 -8 -14 -15
-7 -34 7 -18 6 -25 -2 -25 -9 0 -9 -3 0 -12 18 -18 15 -28 -8 -28 -27 0 -25
-16 3 -25 19 -6 19 -8 5 -12 -22 -6 -23 -22 -3 -29 14 -6 13 -8 -2 -19 -15
-11 12 -14 162 -15 100 0 184 -5 189 -10 7 -7 -55 -10 -172 -10 -167 0 -204
-5 -172 -25 6 -4 7 -12 1 -23 -5 -9 -5 -26 0 -40 6 -15 6 -29 0 -36 -7 -8 49
-10 215 -9 123 1 234 -2 246 -7 15 -6 -55 -9 -200 -9 -146 -1 -221 -4 -217
-11 6 -9 -22 -15 -55 -10 -10 1 -9 -3 5 -13 19 -15 19 -15 -5 -36 -19 -16 -21
-20 -9 -21 9 0 20 -7 23 -16 5 -13 26 -15 146 -11 111 3 140 1 140 -10 0 -10
-31 -13 -140 -13 -114 0 -140 -3 -140 -14 0 -21 81 -29 285 -27 99 1 185 2
190 2 131 -5 177 -5 181 0 2 4 21 3 41 0 46 -8 55 -8 71 2 7 5 12 3 12 -4 0
-7 5 -8 13 -3 14 11 53 10 81 -2 13 -5 17 -4 13 3 -4 6 0 14 9 17 10 4 13 2 8
-6 -5 -8 0 -9 16 -5 12 3 31 0 41 -6 14 -9 24 -9 37 -1 10 7 37 8 70 4 42 -5
52 -4 52 8 0 13 3 13 18 -1 14 -13 26 -14 57 -7 22 5 41 9 43 10 1 0 3 0 5 1
1 0 10 2 20 4 10 2 26 6 35 10 14 5 14 7 2 16 -12 7 -13 11 -2 18 8 4 12 17
10 27 -3 17 5 20 62 25 l65 6 -70 1 c-38 1 -65 6 -60 10 15 11 13 64 -2 58
-17 -7 -17 10 0 21 6 4 50 8 97 9 176 2 213 4 207 10 -3 3 -63 6 -134 6 -165
0 -183 3 -183 34 0 14 7 27 15 30 8 4 12 10 9 15 -3 5 0 9 5 9 6 0 11 -4 11
-10 0 -5 7 -10 15 -10 9 0 12 6 9 15 -4 8 -12 15 -20 15 -8 0 -14 5 -14 10 0
6 37 10 90 10 73 0 90 3 90 15 0 12 -19 15 -107 15 -98 1 -105 2 -78 14 l30
13 -27 8 c-20 5 -28 14 -28 30 0 13 6 23 13 22 72 -2 187 5 187 12 0 9 -27 13
-140 25 -19 2 -34 9 -33 15 2 5 -4 8 -12 5 -9 -4 -15 0 -15 10 0 9 6 16 14 16
14 0 16 23 3 36 -12 12 -8 26 6 19 6 -4 4 0 -6 8 -15 13 -16 16 -2 27 9 7 12
16 7 19 -5 3 -12 16 -16 28 -6 19 -4 22 11 16 16 -6 16 -5 3 8 -8 9 -37 16
-65 18 -66 3 -71 11 -7 11 28 0 54 5 57 10 3 6 1 10 -5 10 -6 0 -9 4 -5 10 3
5 11 8 18 6 7 -1 9 -1 5 1 -4 2 -5 10 -2 18 4 9 -5 13 -30 13 -19 0 -40 3 -45
7 -14 8 -4 26 12 24 7 -1 21 -1 32 0 17 1 18 3 5 11 -8 5 -26 10 -40 11 -17 1
-12 4 15 9 28 5 3 8 -85 10 -69 1 -127 2 -130 2 -3 0 -17 8 -30 19 -25 18 -25
19 120 19 147 0 190 5 190 21 0 5 -78 10 -172 11 l-173 2 157 5 c105 4 161 10
170 19 9 9 9 12 0 12 -7 0 -12 5 -12 11 0 5 5 7 10 4 6 -3 10 -2 10 4 0 5 -4
12 -9 15 -10 7 -9 25 2 44 6 8 1 12 -15 13 l-23 0 23 9 c22 10 31 40 11 40 -8
0 -8 5 1 15 10 12 10 15 -1 16 -8 0 -5 4 6 9 17 7 17 9 3 9 -10 1 -18 5 -18
10 0 5 -6 9 -12 8 -67 -2 -430 4 -427 8 3 2 103 5 223 5 120 1 224 4 232 7 17
6 18 21 2 20 -84 -3 -310 5 -304 11 4 4 74 8 156 9 84 0 156 6 167 12 15 9 13
10 -14 11 -18 0 -33 5 -33 11 0 8 -4 8 -12 1 -9 -7 -25 -6 -53 4 -48 16 -66
18 -45 3 16 -11 8 -10 -49 7 -16 5 -22 4 -18 -3 9 -15 -17 -23 -34 -11 -11 8
-10 9 4 4 9 -3 17 -1 17 3 0 5 -20 9 -45 9 -25 0 -43 -4 -39 -9 3 -5 1 -9 -5
-9 -5 0 -13 5 -16 10 -3 6 -13 10 -21 10 -8 0 -12 -4 -9 -10 3 -5 -1 -10 -9
-10 -9 0 -16 5 -16 10 0 6 -12 10 -26 10 -14 0 -23 -4 -20 -9 3 -5 -16 -9 -42
-9 -36 0 -42 2 -27 9 15 7 13 8 -10 3 -56 -12 -150 -12 -158 0 -6 8 -10 8 -14
-1 -6 -16 -33 -17 -33 -3 0 7 -6 7 -20 0 -14 -7 -20 -7 -20 0 0 5 -13 10 -30
10 -17 0 -30 -5 -30 -12 0 -9 -3 -9 -12 0 -7 7 -23 12 -38 11 -23 0 -23 -1 -5
-9 30 -13 -46 -13 -80 0 -20 8 -30 7 -41 -5 -20 -19 -28 -19 -20 0 3 9 0 15
-10 15 -8 0 -12 -4 -9 -10 9 -14 -39 -12 -53 2 -7 7 -12 8 -12 2z"/>
<path d="M2398 1031 c34 -3 62 -9 62 -13 0 -5 0 -12 0 -17 0 -5 -12 -12 -27
-14 -16 -2 56 -5 160 -6 l187 -1 -15 23 c-8 13 -12 27 -8 30 3 4 -90 6 -208 5
-118 -1 -186 -4 -151 -7z"/>
</g>
</svg>
