<?xml version="1.0" standalone="no"?>
<!DOCTYPE svg PUBLIC "-//W3C//DTD SVG 20010904//EN"
 "http://www.w3.org/TR/2001/REC-SVG-20010904/DTD/svg10.dtd">
<svg version="1.0" xmlns="http://www.w3.org/2000/svg"
 width="535.000000pt" height="618.000000pt" viewBox="0 0 535.000000 618.000000"
 preserveAspectRatio="xMidYMid meet">
<metadata>
Created by potrace 1.16, written by Peter Selinger 2001-2019
</metadata>
<g transform="translate(0.000000,618.000000) scale(0.100000,-0.100000)"
fill="#000000" stroke="none">
<path d="M1335 5412 l-1330 -768 0 -1554 0 -1554 115 -68 c63 -37 171 -100
240 -139 69 -40 612 -353 1208 -697 596 -343 1091 -626 1100 -628 10 -3 582
322 1347 763 l1330 768 0 1555 0 1555 -1329 767 c-732 423 -1335 768 -1341
768 -5 0 -609 -346 -1340 -768z m2559 -232 l1205 -695 -2 -1384 -2 -1383 -230
-134 -230 -133 -1960 -1 -1960 0 -103 60 c-57 33 -108 60 -113 60 -5 0 -9 4
-9 9 0 5 -54 40 -120 77 l-120 69 1 1380 0 1380 1207 697 c664 383 1212 696
1219 695 6 -1 554 -315 1217 -697z m-452 -4440 c-419 -242 -764 -440 -767
-440 -6 0 -1498 861 -1509 871 -6 5 648 9 1514 9 l1524 0 -762 -440z"/>
<path d="M2100 4855 c0 -9 -9 -15 -25 -15 -14 0 -25 -4 -25 -10 0 -5 -11 -10
-25 -10 -14 0 -25 -5 -25 -11 0 -14 -25 -39 -39 -39 -6 0 -11 -11 -11 -25 0
-14 -4 -25 -10 -25 -5 0 -10 -25 -10 -55 0 -42 -3 -55 -15 -55 -12 0 -15 -18
-15 -100 0 -60 -4 -100 -10 -100 -5 0 -10 -18 -10 -40 0 -22 -4 -40 -10 -40
-5 0 -10 -16 -10 -35 0 -24 -5 -35 -15 -35 -9 0 -15 -9 -15 -25 0 -14 -4 -25
-10 -25 -5 0 -10 -11 -10 -25 0 -16 -6 -25 -15 -25 -8 0 -15 -7 -15 -15 0 -8
-4 -15 -10 -15 -5 0 -10 -11 -10 -25 0 -16 -6 -25 -15 -25 -8 0 -15 -7 -15
-15 0 -8 -4 -15 -10 -15 -5 0 -10 -11 -10 -25 0 -14 -5 -25 -11 -25 -14 0 -39
-25 -39 -39 0 -6 -4 -11 -10 -11 -5 0 -10 -11 -10 -25 0 -14 -5 -25 -11 -25
-14 0 -39 -25 -39 -39 0 -6 -7 -11 -15 -11 -9 0 -15 -9 -15 -25 0 -14 -4 -25
-10 -25 -5 0 -10 -7 -10 -15 0 -8 -7 -15 -15 -15 -9 0 -15 -9 -15 -21 0 -22
-22 -49 -39 -49 -6 0 -11 -11 -11 -25 0 -14 -4 -25 -10 -25 -5 0 -10 -7 -10
-15 0 -8 -4 -15 -10 -15 -5 0 -10 -11 -10 -25 0 -16 -6 -25 -15 -25 -9 0 -15
-9 -15 -25 0 -14 -4 -25 -10 -25 -5 0 -10 -11 -10 -25 0 -16 -6 -25 -15 -25
-11 0 -15 -11 -15 -40 0 -22 -4 -40 -10 -40 -5 0 -10 -11 -10 -25 0 -16 -6
-25 -15 -25 -10 0 -15 -11 -15 -35 0 -19 -4 -35 -10 -35 -6 0 -10 -28 -10 -65
0 -51 -3 -65 -15 -65 -13 0 -15 -32 -15 -230 0 -198 2 -230 15 -230 12 0 15
-14 15 -65 0 -37 4 -65 10 -65 6 0 10 -16 10 -35 0 -24 5 -35 15 -35 11 0 15
-11 15 -40 0 -22 5 -40 10 -40 6 0 10 -11 10 -25 0 -16 6 -25 15 -25 8 0 15
-4 15 -10 0 -5 11 -10 25 -10 16 0 25 -6 25 -15 0 -8 9 -15 20 -15 11 0 20 -4
20 -10 0 -5 18 -10 40 -10 29 0 40 -4 40 -15 0 -10 11 -15 35 -15 24 0 35 -5
35 -15 0 -10 11 -15 35 -15 19 0 35 -4 35 -10 0 -5 18 -10 40 -10 29 0 40 -4
40 -15 0 -10 11 -15 35 -15 19 0 35 -4 35 -10 0 -5 7 -10 15 -10 8 0 15 -7 15
-15 0 -8 9 -15 20 -15 11 0 20 -4 20 -10 0 -5 7 -10 15 -10 8 0 15 -7 15 -15
0 -9 9 -15 25 -15 14 0 25 -4 25 -10 0 -5 11 -10 25 -10 14 0 25 -5 25 -11 0
-17 27 -39 49 -39 12 0 21 -6 21 -15 0 -9 9 -15 25 -15 16 0 25 -6 25 -15 0
-9 9 -15 25 -15 14 0 25 -4 25 -10 0 -5 16 -10 35 -10 24 0 35 -5 35 -15 0
-10 11 -15 35 -15 19 0 35 -4 35 -10 0 -5 23 -10 50 -10 38 0 50 -4 50 -15 0
-11 12 -15 50 -15 28 0 50 -4 50 -10 0 -6 38 -10 95 -10 78 0 95 -3 95 -15 0
-12 19 -15 110 -15 91 0 110 3 110 15 0 12 19 15 110 15 67 0 110 4 110 10 0
6 23 10 50 10 38 0 50 4 50 15 0 11 12 15 50 15 28 0 50 5 50 10 0 6 16 10 35
10 24 0 35 5 35 15 0 11 11 15 40 15 22 0 40 5 40 10 0 6 11 10 25 10 16 0 25
6 25 15 0 8 9 15 20 15 11 0 20 7 20 15 0 8 7 15 15 15 8 0 15 5 15 10 0 6 11
10 25 10 14 0 25 5 25 11 0 17 27 39 49 39 12 0 21 6 21 15 0 8 5 15 11 15 14
0 39 25 39 39 0 6 9 11 21 11 22 0 49 22 49 39 0 6 5 11 11 11 14 0 39 25 39
39 0 6 7 11 15 11 9 0 15 9 15 25 0 14 5 25 10 25 6 0 10 7 10 15 0 8 5 15 11
15 17 0 39 27 39 49 0 12 5 21 10 21 6 0 10 7 10 15 0 8 7 15 15 15 9 0 15 9
15 25 0 14 5 25 10 25 6 0 10 16 10 35 0 24 5 35 15 35 12 0 15 13 15 55 0 30
5 55 10 55 6 0 10 48 10 125 0 77 -4 125 -10 125 -5 0 -10 23 -10 50 0 38 -4
50 -15 50 -11 0 -15 11 -15 40 0 22 -4 40 -10 40 -5 0 -10 11 -10 25 0 14 -5
25 -11 25 -18 0 -39 27 -39 50 0 23 -21 50 -39 50 -6 0 -11 5 -11 11 0 6 -6
17 -14 25 -8 8 -19 14 -25 14 -6 0 -11 7 -11 15 0 9 -9 15 -25 15 -14 0 -25 5
-25 10 0 6 -11 10 -25 10 -16 0 -25 6 -25 15 0 8 -9 15 -20 15 -11 0 -20 5
-20 10 0 6 -11 10 -25 10 -16 0 -25 6 -25 15 0 11 -11 15 -40 15 -22 0 -40 5
-40 10 0 6 -27 10 -60 10 -47 0 -60 3 -60 15 0 12 -17 15 -95 15 -78 0 -95 -3
-95 -15 0 -12 -14 -15 -65 -15 -37 0 -65 -4 -65 -10 0 -5 -20 -10 -45 -10 -33
0 -45 -4 -45 -15 0 -9 -9 -15 -25 -15 -14 0 -25 -4 -25 -10 0 -5 -11 -10 -25
-10 -16 0 -25 -6 -25 -15 0 -9 -9 -15 -25 -15 -20 0 -25 -5 -25 -25 0 -16 -6
-25 -15 -25 -8 0 -15 7 -15 15 0 8 -9 15 -20 15 -11 0 -20 5 -20 10 0 6 -11
10 -25 10 -16 0 -25 6 -25 15 0 11 -12 15 -50 15 -27 0 -50 5 -50 10 0 6 -47
10 -120 10 -73 0 -120 -4 -120 -10 0 -5 -18 -10 -40 -10 -29 0 -40 -4 -40 -15
0 -9 -9 -15 -25 -15 -14 0 -25 -4 -25 -10 0 -5 -11 -10 -25 -10 -14 0 -25 -5
-25 -11 0 -16 -30 -43 -38 -34 -4 4 -1 10 6 12 15 6 18 413 2 413 -6 0 -10 40
-10 100 0 82 -3 100 -15 100 -12 0 -15 15 -15 75 0 60 3 75 15 75 8 0 15 7 15
15 0 8 5 15 10 15 6 0 10 -7 10 -15 0 -13 26 -15 170 -15 144 0 170 2 170 15
0 9 9 15 25 15 23 0 25 4 25 40 0 39 1 40 35 40 19 0 35 5 35 10 0 6 11 10 25
10 16 0 25 6 25 15 0 8 7 15 15 15 9 0 15 9 15 25 0 22 4 25 35 25 19 0 35 5
35 10 0 6 11 10 25 10 16 0 25 6 25 15 0 8 5 15 10 15 6 0 10 87 10 240 0 153
-4 240 -10 240 -5 0 -10 7 -10 15 0 8 -5 15 -11 15 -14 0 -39 25 -39 39 0 8
-127 11 -415 11 -362 0 -415 -2 -415 -15z"/>
</g>
</svg>
